<svg width="36" height="12" viewBox="0 0 36 12" fill="none" xmlns="http://www.w3.org/2000/svg">
<path d="M7.4405 5.988C7.4405 6.8 7.37517 7.52333 7.2445 8.158C7.12317 8.79267 6.92717 9.334 6.6565 9.782C6.39517 10.2207 6.04517 10.5567 5.6065 10.79C5.17717 11.0233 4.65917 11.14 4.0525 11.14C3.28717 11.14 2.65717 10.9347 2.1625 10.524C1.66783 10.1133 1.29917 9.52533 1.0565 8.76C0.813833 7.98533 0.6925 7.06133 0.6925 5.988C0.6925 4.90533 0.799833 3.98133 1.0145 3.216C1.2385 2.45067 1.59783 1.86733 2.0925 1.466C2.58717 1.05533 3.2405 0.85 4.0525 0.85C4.81783 0.85 5.44783 1.05533 5.9425 1.466C6.4465 1.86733 6.81983 2.45067 7.0625 3.216C7.3145 3.98133 7.4405 4.90533 7.4405 5.988ZM2.1765 5.988C2.1765 6.856 2.23717 7.57933 2.3585 8.158C2.47983 8.73667 2.67583 9.17067 2.9465 9.46C3.2265 9.74933 3.59517 9.894 4.0525 9.894C4.50983 9.894 4.87383 9.754 5.1445 9.474C5.4245 9.18467 5.62517 8.75067 5.7465 8.172C5.87717 7.584 5.9425 6.856 5.9425 5.988C5.9425 5.12 5.87717 4.40133 5.7465 3.832C5.62517 3.25333 5.4245 2.81933 5.1445 2.53C4.87383 2.24067 4.50983 2.096 4.0525 2.096C3.59517 2.096 3.2265 2.24067 2.9465 2.53C2.67583 2.81933 2.47983 3.25333 2.3585 3.832C2.23717 4.40133 2.1765 5.12 2.1765 5.988ZM13.2822 11H11.8122V4.364C11.8122 4.13067 11.8122 3.916 11.8122 3.72C11.8216 3.51467 11.8309 3.31867 11.8402 3.132C11.8496 2.936 11.8589 2.74933 11.8682 2.572C11.7469 2.69333 11.6209 2.81 11.4902 2.922C11.3596 3.034 11.2102 3.16467 11.0422 3.314L9.95022 4.196L9.19422 3.244L12.0502 1.004H13.2822V11ZM17.0379 10.174C17.0379 9.81 17.1313 9.55333 17.3179 9.404C17.5046 9.25467 17.7286 9.18 17.9899 9.18C18.2606 9.18 18.4893 9.25467 18.6759 9.404C18.8626 9.55333 18.9559 9.81 18.9559 10.174C18.9559 10.538 18.8626 10.7993 18.6759 10.958C18.4893 11.1167 18.2606 11.196 17.9899 11.196C17.7286 11.196 17.5046 11.1167 17.3179 10.958C17.1313 10.7993 17.0379 10.538 17.0379 10.174ZM17.0379 4.294C17.0379 3.91133 17.1313 3.64533 17.3179 3.496C17.5046 3.34667 17.7286 3.272 17.9899 3.272C18.2606 3.272 18.4893 3.34667 18.6759 3.496C18.8626 3.64533 18.9559 3.91133 18.9559 4.294C18.9559 4.64867 18.8626 4.90533 18.6759 5.064C18.4893 5.22267 18.2606 5.302 17.9899 5.302C17.7286 5.302 17.5046 5.22267 17.3179 5.064C17.1313 4.90533 17.0379 4.64867 17.0379 4.294ZM27.2921 5.988C27.2921 6.8 27.2267 7.52333 27.0961 8.158C26.9747 8.79267 26.7787 9.334 26.5081 9.782C26.2467 10.2207 25.8967 10.5567 25.4581 10.79C25.0287 11.0233 24.5107 11.14 23.9041 11.14C23.1387 11.14 22.5087 10.9347 22.0141 10.524C21.5194 10.1133 21.1507 9.52533 20.9081 8.76C20.6654 7.98533 20.5441 7.06133 20.5441 5.988C20.5441 4.90533 20.6514 3.98133 20.8661 3.216C21.0901 2.45067 21.4494 1.86733 21.9441 1.466C22.4387 1.05533 23.0921 0.85 23.9041 0.85C24.6694 0.85 25.2994 1.05533 25.7941 1.466C26.2981 1.86733 26.6714 2.45067 26.9141 3.216C27.1661 3.98133 27.2921 4.90533 27.2921 5.988ZM22.0281 5.988C22.0281 6.856 22.0887 7.57933 22.2101 8.158C22.3314 8.73667 22.5274 9.17067 22.7981 9.46C23.0781 9.74933 23.4467 9.894 23.9041 9.894C24.3614 9.894 24.7254 9.754 24.9961 9.474C25.2761 9.18467 25.4767 8.75067 25.5981 8.172C25.7287 7.584 25.7941 6.856 25.7941 5.988C25.7941 5.12 25.7287 4.40133 25.5981 3.832C25.4767 3.25333 25.2761 2.81933 24.9961 2.53C24.7254 2.24067 24.3614 2.096 23.9041 2.096C23.4467 2.096 23.0781 2.24067 22.7981 2.53C22.5274 2.81933 22.3314 3.25333 22.2101 3.832C22.0887 4.40133 22.0281 5.12 22.0281 5.988ZM31.8738 4.798C32.5364 4.798 33.1151 4.91467 33.6098 5.148C34.1044 5.38133 34.4871 5.71733 34.7578 6.156C35.0378 6.59467 35.1778 7.13133 35.1778 7.766C35.1778 8.466 35.0284 9.068 34.7298 9.572C34.4311 10.076 33.9971 10.4633 33.4278 10.734C32.8678 11.0047 32.1818 11.14 31.3698 11.14C30.8564 11.14 30.3711 11.0933 29.9138 11C29.4564 10.9067 29.0691 10.7713 28.7518 10.594V9.236C29.0878 9.432 29.4938 9.59067 29.9698 9.712C30.4551 9.83333 30.9171 9.894 31.3558 9.894C31.8318 9.894 32.2378 9.824 32.5738 9.684C32.9191 9.53467 33.1851 9.31533 33.3718 9.026C33.5678 8.72733 33.6658 8.354 33.6658 7.906C33.6658 7.29933 33.4744 6.83733 33.0918 6.52C32.7184 6.19333 32.1258 6.03 31.3138 6.03C31.0524 6.03 30.7584 6.05333 30.4318 6.1C30.1144 6.14667 29.8578 6.19333 29.6618 6.24L28.9758 5.834L29.3538 1.004H34.4918V2.32H30.6418L30.4178 4.938C30.5764 4.91 30.7771 4.882 31.0198 4.854C31.2624 4.81667 31.5471 4.798 31.8738 4.798Z" fill="#282828"/>
</svg>
