<svg width="38" height="28" viewBox="0 0 38 28" fill="none" xmlns="http://www.w3.org/2000/svg">
<path d="M17.2264 14.112C17.2264 16.2 17.0704 18.06 16.7584 19.692C16.4464 21.324 15.9424 22.716 15.2464 23.868C14.5744 24.996 13.6864 25.86 12.5824 26.46C11.5024 27.06 10.1944 27.36 8.65844 27.36C6.73844 27.36 5.14244 26.832 3.87044 25.776C2.62244 24.72 1.68644 23.208 1.06244 21.24C0.462438 19.248 0.162438 16.872 0.162438 14.112C0.162438 11.328 0.438438 8.952 0.990438 6.984C1.56644 5.016 2.47844 3.516 3.72644 2.484C4.97444 1.428 6.61844 0.899999 8.65844 0.899999C10.5784 0.899999 12.1744 1.428 13.4464 2.484C14.7184 3.516 15.6664 5.016 16.2904 6.984C16.9144 8.952 17.2264 11.328 17.2264 14.112ZM3.33044 14.112C3.33044 16.464 3.49844 18.42 3.83444 19.98C4.19444 21.54 4.75844 22.716 5.52644 23.508C6.31844 24.276 7.36244 24.66 8.65844 24.66C9.95444 24.66 10.9864 24.276 11.7544 23.508C12.5464 22.74 13.1224 21.576 13.4824 20.016C13.8424 18.432 14.0224 16.464 14.0224 14.112C14.0224 11.76 13.8424 9.816 13.4824 8.28C13.1224 6.72 12.5464 5.556 11.7544 4.788C10.9864 3.996 9.95444 3.6 8.65844 3.6C7.36244 3.6 6.31844 3.996 5.52644 4.788C4.75844 5.556 4.19444 6.72 3.83444 8.28C3.49844 9.816 3.33044 11.76 3.33044 14.112ZM23.896 27L34.444 4.176H20.584V1.296H37.828V3.744L27.388 27H23.896Z" fill="#212121"/>
</svg>
