<svg width="100" height="100" viewBox="0 0 100 100" fill="none" xmlns="http://www.w3.org/2000/svg">
<rect x="0.5" y="0.5" width="99" height="99" rx="49.5" fill="white"/>
<path fill-rule="evenodd" clip-rule="evenodd" d="M73.6241 34.2489C72.0637 32.9837 69.7443 33.1946 68.437 34.7549C67.1718 36.3153 67.3827 38.6769 68.943 39.9421C70.5034 41.2072 72.865 40.9964 74.1302 39.436C75.4375 37.8335 75.1845 35.514 73.6241 34.2489Z" fill="#F0D0B0"/>
<path fill-rule="evenodd" clip-rule="evenodd" d="M71.642 35.1344C70.5034 34.2066 68.7743 34.3332 67.8465 35.514C66.9188 36.6526 67.0874 38.3817 68.2261 39.3094C69.3647 40.2372 71.0938 40.0685 72.0216 38.9299C72.9493 37.7913 72.7806 36.0622 71.642 35.1344Z" fill="#E2B586"/>
<path fill-rule="evenodd" clip-rule="evenodd" d="M27.4037 34.2489C28.9641 32.9837 31.2835 33.1946 32.5908 34.7549C33.856 36.3153 33.6451 38.6769 32.0848 39.9421C30.5244 41.2072 28.1628 40.9964 26.8976 39.436C25.5903 37.8335 25.8433 35.514 27.4037 34.2489Z" fill="#F0D0B0"/>
<path fill-rule="evenodd" clip-rule="evenodd" d="M29.3858 35.1344C30.5244 34.2066 32.2535 34.3332 33.1813 35.514C34.109 36.6526 33.9404 38.3817 32.8017 39.3094C31.6631 40.2372 29.934 40.0685 29.0063 38.9299C28.0363 37.7913 28.2472 36.0622 29.3858 35.1344Z" fill="#E2B586"/>
<path fill-rule="evenodd" clip-rule="evenodd" d="M50.5139 47.2378L38.7479 48.5873C38.7479 48.5873 32.8439 53.8166 33.4343 63.8535C33.4343 63.8535 32.38 64.7813 33.1391 67.3116C33.8982 69.8419 41.8686 79.9631 50.7247 79.8788C59.623 79.9631 67.0874 69.8419 67.8887 67.3116C68.6899 64.7813 67.5935 63.8535 67.5935 63.8535C68.1839 53.8588 62.2376 48.5873 62.2376 48.5873L50.5139 47.2378Z" fill="#F0D0B0"/>
<path fill-rule="evenodd" clip-rule="evenodd" d="M50.514 65.3295C50.514 65.3295 44.5256 65.2451 42.3326 56.3047C42.3326 56.3047 43.3448 63.5582 43.5556 67.0585C43.7243 70.6009 40.1397 71.9504 38.5372 69.378C36.9346 66.8055 34.9104 56.7686 34.9104 56.7686C34.9104 56.7686 35.7538 64.233 35.0791 67.5646C34.4465 70.8961 38.7059 72.6252 38.7059 72.6252H50.5562H62.4065C62.4065 72.6252 66.708 70.8961 66.0332 67.5646C65.3585 64.233 66.2019 56.7686 66.2019 56.7686C66.2019 56.7686 64.1777 66.7633 62.5751 69.378C60.9726 71.9504 57.388 70.6431 57.5567 67.0585C57.7675 63.5161 58.7375 56.3047 58.7375 56.3047C56.4602 65.2873 50.514 65.3295 50.514 65.3295Z" fill="#E2B586"/>
<path fill-rule="evenodd" clip-rule="evenodd" d="M66.4971 67.0585L67.8887 67.3116C67.8887 67.3116 73.7928 70.4323 75.6484 76.5472C77.4618 82.6621 71.8107 85.0659 68.69 85.4455C65.5693 85.825 61.3521 86.8371 61.3521 86.8371C61.3521 86.8371 62.2377 88.9879 60.1713 89.8313C58.0627 90.6326 50.1344 87.9758 53.0021 81.1439C53.0021 81.1439 53.6347 80.2162 54.942 80.0896C54.942 80.0896 58.6953 76.9689 62.7438 75.1977L66.4971 67.0585Z" fill="#F0D0B0"/>
<path fill-rule="evenodd" clip-rule="evenodd" d="M67.467 66.8477L67.9309 67.3537L68.0574 67.4381C68.0574 67.4381 66.4971 71.5709 70.4612 73.0891C70.4612 73.0891 66.6236 73.4686 62.9968 74.9868L62.9125 74.9447L65.0632 69.1671C65.8645 68.3237 66.7079 67.5224 67.467 66.8477Z" fill="#E2B586"/>
<path fill-rule="evenodd" clip-rule="evenodd" d="M75.8171 77.2642C77.0822 82.873 71.6842 85.1081 68.7322 85.4455C65.6115 85.825 61.3943 86.8372 61.3943 86.8372C62.4486 84.9394 59.4966 81.2283 59.4966 81.2283C61.0991 82.1561 62.533 83.4634 68.9431 82.7465C75.2267 82.0717 75.8171 77.3907 75.8171 77.2642Z" fill="#E2B586"/>
<path fill-rule="evenodd" clip-rule="evenodd" d="M35.0369 67.6068L33.1392 67.3538C33.1392 67.3538 27.2351 70.4745 25.3795 76.5894C23.524 82.7043 29.2172 85.1081 32.3379 85.4877C35.4586 85.8672 39.6758 86.8793 39.6758 86.8793C39.6758 86.8793 38.7902 89.0301 40.8566 89.8735C42.9652 90.6748 50.8935 88.018 48.0258 81.1861C48.0258 81.1861 47.3933 80.2584 46.0859 80.1318C46.0859 80.1318 43.0074 76.4207 38.9589 74.6495L35.0369 67.6068Z" fill="#F0D0B0"/>
<path fill-rule="evenodd" clip-rule="evenodd" d="M33.5609 66.8477L33.097 67.3537L32.9704 67.4381C32.9704 67.4381 34.4886 71.5709 30.5667 73.0891C30.5667 73.0891 30.6932 73.1313 30.904 73.1313C31.9583 73.2578 35.7116 73.3421 38.7058 74.6073L38.7902 74.5651L35.9646 69.2093C35.1634 68.3237 34.3199 67.5224 33.5609 66.8477Z" fill="#E2B586"/>
<path fill-rule="evenodd" clip-rule="evenodd" d="M25.1686 77.2642C23.9035 82.873 29.3015 85.1081 32.2957 85.4455C35.4164 85.825 39.6336 86.8372 39.6336 86.8372C38.5793 84.9394 41.5313 81.2283 41.5313 81.2283C39.9288 82.1561 38.495 83.4634 32.0427 82.7465C25.7591 82.0717 25.2108 77.3907 25.1686 77.2642Z" fill="#E2B586"/>
<path fill-rule="evenodd" clip-rule="evenodd" d="M33.4343 63.8535C33.4343 63.8535 32.38 64.7813 33.1391 67.3116C33.8982 69.8419 41.8686 79.9632 50.7247 79.8788C59.623 79.9632 65.9488 73.5952 67.8887 67.3116C68.6899 64.7813 67.5935 63.8535 67.5935 63.8535C67.5935 63.8535 64.4728 73.0892 50.4717 72.2879C36.555 73.0892 33.4343 63.8535 33.4343 63.8535Z" fill="#DEF3E1"/>
<path fill-rule="evenodd" clip-rule="evenodd" d="M47.0558 81.2705L45.8328 73.0048L42.2482 56.3469L37.1876 54.6179L34.8682 56.8108L36.2598 64.8234L39.6758 75.8303" fill="#F0D0B0"/>
<path fill-rule="evenodd" clip-rule="evenodd" d="M53.9298 81.2705L55.195 73.0048L58.7374 56.3469L63.798 54.6179L66.1596 56.8108L64.768 64.8234L61.9846 76.7581" fill="#F0D0B0"/>
<path fill-rule="evenodd" clip-rule="evenodd" d="M69.6599 31.0016C71.895 47.4908 64.768 54.913 50.4717 55.5035C36.2177 54.913 29.0906 47.4908 31.3257 31.0016C34.0247 11.2652 66.9609 11.2652 69.6599 31.0016Z" fill="#F0D0B0"/>
<path fill-rule="evenodd" clip-rule="evenodd" d="M66.5393 43.8219C63.8824 50.5694 57.641 53.8166 48.4054 54.2383C44.0617 54.0696 40.3927 53.2262 37.4407 51.7502C40.6879 54.1118 45.0738 55.2926 50.5139 55.5456C59.7496 55.1661 65.991 51.9189 68.6478 45.2135C69.66 42.7254 70.1239 39.8155 70.0817 36.3996C70.0817 34.7127 69.9552 32.9415 69.7021 31.0438C68.8587 25.1397 65.4006 21.0069 60.8461 18.6453C64.3463 21.0912 66.8766 24.8024 67.5514 29.7365C67.8888 32.3089 68.0153 34.7127 67.9309 36.8213C67.8044 39.4782 67.2983 41.7976 66.5393 43.8219Z" fill="#E2B586"/>
<path d="M45.0737 33.3632C45.1159 35.3032 43.5977 36.9057 41.7 36.9479C39.7601 36.99 38.1575 35.4718 38.1154 33.5741C38.0732 31.6342 39.5914 30.0317 41.4891 29.9895C43.3868 29.9052 44.9894 31.4233 45.0737 33.3632Z" fill="white"/>
<path d="M44.5256 33.5741C44.5677 35.008 43.4291 36.1888 41.9952 36.231C40.5614 36.2731 39.3806 35.1345 39.3384 33.7006C39.2962 32.2668 40.4349 31.086 41.8687 31.0438C43.2604 31.0438 44.4412 32.1403 44.5256 33.5741Z" fill="#382417"/>
<path d="M43.1761 32.9837C43.1761 33.3633 42.8809 33.7006 42.5013 33.7006C42.1218 33.7006 41.7844 33.4054 41.7844 33.0259C41.7844 32.6463 42.0796 32.309 42.4592 32.309C42.8387 32.309 43.1761 32.6042 43.1761 32.9837Z" fill="white"/>
<path d="M62.2799 32.815C62.3221 34.7549 60.8039 36.3574 58.9061 36.3996C56.9662 36.4417 55.3637 34.9236 55.3215 33.0258C55.2794 31.0859 56.7976 29.4834 58.6953 29.4412C60.593 29.3569 62.2377 30.8751 62.2799 32.815Z" fill="white"/>
<path d="M61.7316 33.0681C61.7738 34.5019 60.6351 35.6827 59.2013 35.7249C57.7675 35.7671 56.5866 34.6284 56.5445 33.1946C56.5023 31.7607 57.6409 30.5799 59.0748 30.5378C60.4665 30.4956 61.6894 31.6342 61.7316 33.0681Z" fill="#382417"/>
<path d="M60.4243 32.4776C60.4243 32.8571 60.1291 33.1945 59.7495 33.1945C59.37 33.1945 59.0326 32.8993 59.0326 32.5198C59.0326 32.1402 59.3278 31.8028 59.7073 31.8028C60.0447 31.7607 60.3821 32.0559 60.4243 32.4776Z" fill="white"/>
<path d="M52.4539 36.7791C52.4539 36.7791 52.6226 34.8392 50.8092 34.8814C48.9114 34.9236 49.291 37.1165 49.291 37.1165L52.4539 36.7791Z" fill="#E2B586"/>
<path d="M50.3875 48.5873C56.7976 48.9668 58.0206 43.0628 58.2314 40.4481C58.2736 39.8155 57.7675 39.2673 57.135 39.3095L43.8087 39.7312C43.1761 39.7312 42.7122 40.3216 42.7965 40.9542C43.2183 43.2736 44.6521 48.2499 50.3875 48.5873Z" fill="#E8A2CC"/>
<path d="M44.6943 45.6352C48.4897 42.7254 53.3817 41.2494 57.9784 42.2193C58.1049 41.5446 58.1893 40.912 58.2314 40.4481C58.2736 39.8155 57.7675 39.2673 57.135 39.3095L43.8087 39.7312C43.1761 39.7312 42.7122 40.3216 42.7965 40.9542C43.0074 42.135 43.5135 44.0327 44.6943 45.6352Z" fill="#382417"/>
<path d="M41.0252 25.8567C39.9287 25.941 39.0431 26.4049 38.1575 26.9532C37.3141 27.4592 36.3863 28.2183 36.1754 29.2304C36.1754 29.3148 36.1333 29.61 36.2598 29.6522C36.555 29.6943 36.7659 29.3991 36.9767 29.2304C37.3984 28.8509 37.8623 28.5135 38.3262 28.1761C39.254 27.5857 40.2239 26.9953 41.0674 26.3206C41.1096 26.2362 41.1096 25.8567 41.0252 25.8567Z" fill="#382417"/>
<path d="M63.5872 26.9531C62.2798 25.5193 60.3821 24.4228 58.4844 24.1698C58.4 24.1698 58.4422 24.465 58.4844 24.5072C59.3278 25.0554 60.2134 25.5615 61.099 26.1097C61.9003 26.5736 62.7015 27.1218 63.5872 27.3749C63.6715 27.3327 63.6293 26.9953 63.5872 26.9531Z" fill="#382417"/>
<path d="M53.3816 11.6869C52.3695 7.97578 48.5318 11.1387 47.9836 13.5003C47.5619 15.2715 47.7306 17.2536 48.3631 19.0248C47.7727 19.5309 47.1402 19.9526 46.4232 20.29C46.2546 20.3743 46.5076 20.9647 46.6341 20.9647C47.4775 21.0491 48.2366 20.7539 48.8692 20.29C49.0801 20.7117 49.3753 21.1334 49.6283 21.5129C51.3152 23.7481 54.7733 25.0554 56.6288 22.2299C56.7132 22.1034 56.5445 21.5129 56.3336 21.5551C54.3516 22.0612 52.8755 23.0733 50.8935 21.8082C50.1765 21.3443 49.6283 20.7117 49.2066 19.9948C50.05 19.2357 50.7669 18.1814 51.3573 17.2958C52.5803 15.6511 53.972 13.7955 53.3816 11.6869ZM48.7005 18.6874C48.4053 17.6753 48.2788 16.5788 48.3631 15.6089C48.4475 14.6811 48.7427 13.7533 49.2066 12.9521C49.544 12.3195 50.05 11.8556 50.6404 11.476C51.6947 10.717 53.719 10.6748 52.6647 13.2894C52.1164 14.6389 51.02 15.8619 50.1765 17.0427C49.7126 17.591 49.2488 18.1814 48.7005 18.6874Z" fill="#E5B242"/>
<rect x="0.5" y="0.5" width="99" height="99" rx="49.5" stroke="#EE6093"/>
</svg>
