<svg width="328" height="30" viewBox="0 0 328 30" fill="none" xmlns="http://www.w3.org/2000/svg">
<mask id="mask0_5_309" style="mask-type:alpha" maskUnits="userSpaceOnUse" x="0" y="0" width="328" height="30">
<path d="M0 4C0 1.79086 1.79086 0 4 0H324C326.209 0 328 1.79086 328 4V30H0V4Z" fill="url(#paint0_linear_5_309)"/>
</mask>
<g mask="url(#mask0_5_309)">
<path d="M0 4C0 1.79086 1.79086 0 4 0H324C326.209 0 328 1.79086 328 4V30H0V4Z" fill="#1AB0B0"/>
<path opacity="0.1" fill-rule="evenodd" clip-rule="evenodd" d="M-21.5004 -0.0244853L-14.3592 11.5C-6.37847 14.5227 25.4676 5.33992 41.5 9C58.8764 12.7001 59.9465 20.3036 76.0853 20.3858C92.236 20.0703 104.349 14.3154 120.5 14C136.651 13.6846 158.159 19.6436 174.369 17.3405C190.578 15.0373 206.895 9.1561 223.093 7.25046C239.302 4.94726 256.738 6.65956 272.782 9.92208C288.838 12.7871 304.847 17.2422 320.974 17.7219C337.101 18.2016 353.346 14.7057 370.888 12.8401C387.098 10.5369 403.26 9.82387 411.348 9.26861L419.423 9.11089L418.382 44.0954L410.319 43.8556C402.255 43.6157 386.128 43.1361 370.001 42.6564C352.53 42.1368 336.403 41.6571 320.276 41.1774C304.149 40.6978 288.022 40.2181 271.895 39.7384C255.768 39.2588 238.297 38.7391 222.17 38.2595C206.043 37.7798 189.916 37.3001 173.789 36.8205C157.662 36.3408 140.191 35.8212 124.064 35.3415C107.937 34.8618 91.8103 34.3822 75.6833 33.9025C59.5563 33.4228 43.4293 32.9432 25.9583 32.4235C9.83131 31.9439 -6.2957 31.4642 -14.3592 31.2244L-22.4227 30.9845L-21.5004 -0.0244853Z" fill="white"/>
<g filter="url(#filter0_b_5_309)">
<path fill-rule="evenodd" clip-rule="evenodd" d="M0 6.12885H7C14 6.12885 27 6.12885 41 12.4621C55 18.7953 56 10.0262 70 9.05189C84 8.56472 100.5 26.5901 114.5 20.2568C128.5 13.9236 150 4.66733 164 9.05188C178 13.9236 191 21.7184 205 22.6927C219 23.6671 232 17.3338 246 16.3595C260 15.3851 273 20.2568 287 20.2568C301 20.2568 314 15.3851 321 13.4364L328 11.0006V49H321C314 49 301 49 287 49C273 49 260 49 246 49C232 49 219 49 205 49C191 49 178 49 164 49C150 49 137 49 123 49C109 49 96 49 82 49C68 49 55 49 41 49C27 49 14 49 7 49H0V6.12885Z" fill="white" fill-opacity="0.1"/>
</g>
<path d="M310.662 8H307.308V9.06466H310.091L304.469 14.6854L305.288 15.5044L310.919 9.87435V12.6651H312V9.33826C312 8.59917 311.401 8 310.662 8Z" fill="white"/>
<path d="M309.996 20.4207C309.996 20.7469 309.741 21.0112 309.427 21.0112H299.573C299.259 21.0112 299.004 20.7469 299.004 20.4207V10.5791C299.004 10.253 299.259 9.98862 299.573 9.98862H305.858V9H299.243C298.556 9 298 9.55637 298 10.2427V20.7573C298 21.4436 298.556 22 299.243 22H309.757C310.444 22 311 21.4436 311 20.7573V14.1177H309.996V20.4207H309.996Z" fill="white"/>
<path d="M20.836 12.26C20.38 12.26 19.968 12.34 19.6 12.5C19.232 12.652 18.92 12.88 18.664 13.184C18.408 13.48 18.212 13.844 18.076 14.276C17.94 14.7 17.872 15.18 17.872 15.716C17.872 16.42 17.98 17.032 18.196 17.552C18.42 18.072 18.748 18.472 19.18 18.752C19.62 19.032 20.168 19.172 20.824 19.172C21.2 19.172 21.556 19.14 21.892 19.076C22.228 19.012 22.556 18.932 22.876 18.836V19.772C22.556 19.892 22.224 19.98 21.88 20.036C21.544 20.092 21.14 20.12 20.668 20.12C19.796 20.12 19.068 19.94 18.484 19.58C17.9 19.22 17.46 18.708 17.164 18.044C16.876 17.38 16.732 16.6 16.732 15.704C16.732 15.056 16.82 14.464 16.996 13.928C17.18 13.392 17.444 12.928 17.788 12.536C18.14 12.144 18.572 11.844 19.084 11.636C19.596 11.42 20.184 11.312 20.848 11.312C21.288 11.312 21.712 11.356 22.12 11.444C22.528 11.532 22.892 11.656 23.212 11.816L22.78 12.728C22.516 12.608 22.22 12.5 21.892 12.404C21.572 12.308 21.22 12.26 20.836 12.26ZM30.194 16.772C30.194 17.308 30.122 17.784 29.978 18.2C29.842 18.608 29.642 18.956 29.378 19.244C29.122 19.532 28.806 19.752 28.43 19.904C28.062 20.048 27.65 20.12 27.194 20.12C26.77 20.12 26.378 20.048 26.018 19.904C25.658 19.752 25.346 19.532 25.082 19.244C24.818 18.956 24.61 18.608 24.458 18.2C24.314 17.784 24.242 17.308 24.242 16.772C24.242 16.06 24.362 15.46 24.602 14.972C24.842 14.476 25.186 14.1 25.634 13.844C26.082 13.58 26.614 13.448 27.23 13.448C27.814 13.448 28.326 13.58 28.766 13.844C29.214 14.1 29.562 14.476 29.81 14.972C30.066 15.46 30.194 16.06 30.194 16.772ZM25.334 16.772C25.334 17.276 25.398 17.716 25.526 18.092C25.662 18.46 25.87 18.744 26.15 18.944C26.43 19.144 26.786 19.244 27.218 19.244C27.65 19.244 28.006 19.144 28.286 18.944C28.566 18.744 28.77 18.46 28.898 18.092C29.034 17.716 29.102 17.276 29.102 16.772C29.102 16.26 29.034 15.824 28.898 15.464C28.762 15.104 28.554 14.828 28.274 14.636C28.002 14.436 27.646 14.336 27.206 14.336C26.55 14.336 26.074 14.552 25.778 14.984C25.482 15.416 25.334 16.012 25.334 16.772ZM34.9637 13.448C35.7317 13.448 36.3117 13.636 36.7037 14.012C37.0957 14.38 37.2917 14.98 37.2917 15.812V20H36.2477V15.884C36.2477 15.364 36.1317 14.976 35.8997 14.72C35.6677 14.464 35.3037 14.336 34.8077 14.336C34.0957 14.336 33.6037 14.536 33.3317 14.936C33.0597 15.336 32.9237 15.912 32.9237 16.664V20H31.8677V13.568H32.7197L32.8757 14.444H32.9357C33.0797 14.22 33.2557 14.036 33.4637 13.892C33.6797 13.74 33.9157 13.628 34.1717 13.556C34.4277 13.484 34.6917 13.448 34.9637 13.448ZM41.4336 19.256C41.5936 19.256 41.7576 19.244 41.9256 19.22C42.0936 19.188 42.2296 19.156 42.3336 19.124V19.928C42.2216 19.984 42.0616 20.028 41.8536 20.06C41.6456 20.1 41.4456 20.12 41.2536 20.12C40.9176 20.12 40.6056 20.064 40.3176 19.952C40.0376 19.832 39.8096 19.628 39.6336 19.34C39.4576 19.052 39.3696 18.648 39.3696 18.128V14.384H38.4576V13.88L39.3816 13.46L39.8016 12.092H40.4256V13.568H42.2856V14.384H40.4256V18.104C40.4256 18.496 40.5176 18.788 40.7016 18.98C40.8936 19.164 41.1376 19.256 41.4336 19.256ZM46.6216 13.448C46.7416 13.448 46.8696 13.456 47.0056 13.472C47.1496 13.48 47.2736 13.496 47.3776 13.52L47.2456 14.492C47.1416 14.468 47.0256 14.448 46.8976 14.432C46.7776 14.416 46.6616 14.408 46.5496 14.408C46.3016 14.408 46.0656 14.46 45.8416 14.564C45.6176 14.668 45.4176 14.816 45.2416 15.008C45.0656 15.192 44.9256 15.416 44.8216 15.68C44.7256 15.944 44.6776 16.24 44.6776 16.568V20H43.6216V13.568H44.4856L44.6056 14.744H44.6536C44.7896 14.504 44.9536 14.288 45.1456 14.096C45.3376 13.896 45.5576 13.74 45.8056 13.628C46.0536 13.508 46.3256 13.448 46.6216 13.448ZM50.7802 13.46C51.5642 13.46 52.1442 13.632 52.5202 13.976C52.8962 14.32 53.0842 14.868 53.0842 15.62V20H52.3162L52.1122 19.088H52.0642C51.8802 19.32 51.6882 19.516 51.4882 19.676C51.2962 19.828 51.0722 19.94 50.8162 20.012C50.5682 20.084 50.2642 20.12 49.9042 20.12C49.5202 20.12 49.1722 20.052 48.8602 19.916C48.5562 19.78 48.3162 19.572 48.1402 19.292C47.9642 19.004 47.8762 18.644 47.8762 18.212C47.8762 17.572 48.1282 17.08 48.6322 16.736C49.1362 16.384 49.9122 16.192 50.9602 16.16L52.0522 16.124V15.74C52.0522 15.204 51.9362 14.832 51.7042 14.624C51.4722 14.416 51.1442 14.312 50.7202 14.312C50.3842 14.312 50.0642 14.364 49.7602 14.468C49.4562 14.564 49.1722 14.676 48.9082 14.804L48.5842 14.012C48.8642 13.86 49.1962 13.732 49.5802 13.628C49.9642 13.516 50.3642 13.46 50.7802 13.46ZM51.0922 16.892C50.2922 16.924 49.7362 17.052 49.4242 17.276C49.1202 17.5 48.9682 17.816 48.9682 18.224C48.9682 18.584 49.0762 18.848 49.2922 19.016C49.5162 19.184 49.8002 19.268 50.1442 19.268C50.6882 19.268 51.1402 19.12 51.5002 18.824C51.8602 18.52 52.0402 18.056 52.0402 17.432V16.856L51.0922 16.892ZM57.6508 20.12C57.0828 20.12 56.5748 20.004 56.1268 19.772C55.6868 19.54 55.3388 19.18 55.0828 18.692C54.8348 18.204 54.7108 17.58 54.7108 16.82C54.7108 16.028 54.8428 15.384 55.1068 14.888C55.3708 14.392 55.7268 14.028 56.1748 13.796C56.6308 13.564 57.1468 13.448 57.7228 13.448C58.0508 13.448 58.3668 13.484 58.6708 13.556C58.9748 13.62 59.2228 13.7 59.4148 13.796L59.0908 14.672C58.8988 14.6 58.6748 14.532 58.4188 14.468C58.1628 14.404 57.9228 14.372 57.6988 14.372C57.2668 14.372 56.9108 14.464 56.6308 14.648C56.3508 14.832 56.1428 15.104 56.0068 15.464C55.8708 15.824 55.8028 16.272 55.8028 16.808C55.8028 17.32 55.8708 17.756 56.0068 18.116C56.1428 18.476 56.3468 18.748 56.6188 18.932C56.8908 19.116 57.2308 19.208 57.6388 19.208C57.9908 19.208 58.2988 19.172 58.5628 19.1C58.8348 19.028 59.0828 18.94 59.3068 18.836V19.772C59.0908 19.884 58.8508 19.968 58.5868 20.024C58.3308 20.088 58.0188 20.12 57.6508 20.12ZM62.9844 19.256C63.1444 19.256 63.3084 19.244 63.4764 19.22C63.6444 19.188 63.7804 19.156 63.8844 19.124V19.928C63.7724 19.984 63.6124 20.028 63.4044 20.06C63.1964 20.1 62.9964 20.12 62.8044 20.12C62.4684 20.12 62.1564 20.064 61.8684 19.952C61.5884 19.832 61.3604 19.628 61.1844 19.34C61.0084 19.052 60.9204 18.648 60.9204 18.128V14.384H60.0084V13.88L60.9324 13.46L61.3524 12.092H61.9764V13.568H63.8364V14.384H61.9764V18.104C61.9764 18.496 62.0684 18.788 62.2524 18.98C62.4444 19.164 62.6884 19.256 62.9844 19.256ZM66.2283 13.568V20H65.1723V13.568H66.2283ZM65.7123 11.156C65.8723 11.156 66.0123 11.212 66.1323 11.324C66.2603 11.428 66.3243 11.596 66.3243 11.828C66.3243 12.052 66.2603 12.22 66.1323 12.332C66.0123 12.444 65.8723 12.5 65.7123 12.5C65.5363 12.5 65.3883 12.444 65.2683 12.332C65.1483 12.22 65.0883 12.052 65.0883 11.828C65.0883 11.596 65.1483 11.428 65.2683 11.324C65.3883 11.212 65.5363 11.156 65.7123 11.156ZM73.8581 16.772C73.8581 17.308 73.7861 17.784 73.6421 18.2C73.5061 18.608 73.3061 18.956 73.0421 19.244C72.7861 19.532 72.4701 19.752 72.0941 19.904C71.7261 20.048 71.3141 20.12 70.8581 20.12C70.4341 20.12 70.0421 20.048 69.6821 19.904C69.3221 19.752 69.0101 19.532 68.7461 19.244C68.4821 18.956 68.2741 18.608 68.1221 18.2C67.9781 17.784 67.9061 17.308 67.9061 16.772C67.9061 16.06 68.0261 15.46 68.2661 14.972C68.5061 14.476 68.8501 14.1 69.2981 13.844C69.7461 13.58 70.2781 13.448 70.8941 13.448C71.4781 13.448 71.9901 13.58 72.4301 13.844C72.8781 14.1 73.2261 14.476 73.4741 14.972C73.7301 15.46 73.8581 16.06 73.8581 16.772ZM68.9981 16.772C68.9981 17.276 69.0621 17.716 69.1901 18.092C69.3261 18.46 69.5341 18.744 69.8141 18.944C70.0941 19.144 70.4501 19.244 70.8821 19.244C71.3141 19.244 71.6701 19.144 71.9501 18.944C72.2301 18.744 72.4341 18.46 72.5621 18.092C72.6981 17.716 72.7661 17.276 72.7661 16.772C72.7661 16.26 72.6981 15.824 72.5621 15.464C72.4261 15.104 72.2181 14.828 71.9381 14.636C71.6661 14.436 71.3101 14.336 70.8701 14.336C70.2141 14.336 69.7381 14.552 69.4421 14.984C69.1461 15.416 68.9981 16.012 68.9981 16.772ZM78.6277 13.448C79.3957 13.448 79.9757 13.636 80.3677 14.012C80.7597 14.38 80.9557 14.98 80.9557 15.812V20H79.9117V15.884C79.9117 15.364 79.7957 14.976 79.5637 14.72C79.3317 14.464 78.9677 14.336 78.4717 14.336C77.7597 14.336 77.2677 14.536 76.9957 14.936C76.7237 15.336 76.5877 15.912 76.5877 16.664V20H75.5317V13.568H76.3837L76.5397 14.444H76.5997C76.7437 14.22 76.9197 14.036 77.1277 13.892C77.3437 13.74 77.5797 13.628 77.8357 13.556C78.0917 13.484 78.3557 13.448 78.6277 13.448ZM88.2149 19.256C88.3749 19.256 88.5389 19.244 88.7069 19.22C88.8749 19.188 89.0109 19.156 89.1149 19.124V19.928C89.0029 19.984 88.8429 20.028 88.6349 20.06C88.4269 20.1 88.2269 20.12 88.0349 20.12C87.6989 20.12 87.3869 20.064 87.0989 19.952C86.8189 19.832 86.5909 19.628 86.4149 19.34C86.2389 19.052 86.1509 18.648 86.1509 18.128V14.384H85.2389V13.88L86.1629 13.46L86.5829 12.092H87.2069V13.568H89.0669V14.384H87.2069V18.104C87.2069 18.496 87.2989 18.788 87.4829 18.98C87.6749 19.164 87.9189 19.256 88.2149 19.256ZM91.4588 13.568V20H90.4028V13.568H91.4588ZM90.9428 11.156C91.1028 11.156 91.2428 11.212 91.3628 11.324C91.4908 11.428 91.5548 11.596 91.5548 11.828C91.5548 12.052 91.4908 12.22 91.3628 12.332C91.2428 12.444 91.1028 12.5 90.9428 12.5C90.7668 12.5 90.6188 12.444 90.4988 12.332C90.3788 12.22 90.3188 12.052 90.3188 11.828C90.3188 11.596 90.3788 11.428 90.4988 11.324C90.6188 11.212 90.7668 11.156 90.9428 11.156ZM100.553 13.448C101.281 13.448 101.825 13.636 102.185 14.012C102.545 14.38 102.725 14.98 102.725 15.812V20H101.681V15.86C101.681 15.356 101.573 14.976 101.357 14.72C101.149 14.464 100.821 14.336 100.373 14.336C99.7486 14.336 99.3006 14.516 99.0286 14.876C98.7646 15.236 98.6326 15.76 98.6326 16.448V20H97.5886V15.86C97.5886 15.524 97.5406 15.244 97.4446 15.02C97.3486 14.788 97.2046 14.616 97.0126 14.504C96.8206 14.392 96.5726 14.336 96.2686 14.336C95.8366 14.336 95.4966 14.428 95.2486 14.612C95.0006 14.788 94.8206 15.048 94.7086 15.392C94.6046 15.736 94.5526 16.16 94.5526 16.664V20H93.4966V13.568H94.3486L94.5046 14.444H94.5646C94.7006 14.22 94.8646 14.036 95.0566 13.892C95.2566 13.74 95.4766 13.628 95.7166 13.556C95.9566 13.484 96.2046 13.448 96.4606 13.448C96.9566 13.448 97.3686 13.536 97.6966 13.712C98.0326 13.888 98.2766 14.16 98.4286 14.528H98.4886C98.7046 14.16 98.9966 13.888 99.3646 13.712C99.7406 13.536 100.137 13.448 100.553 13.448ZM107.195 13.448C107.747 13.448 108.219 13.568 108.611 13.808C109.011 14.048 109.315 14.388 109.523 14.828C109.739 15.26 109.847 15.768 109.847 16.352V16.988H105.443C105.459 17.716 105.643 18.272 105.995 18.656C106.355 19.032 106.855 19.22 107.495 19.22C107.903 19.22 108.263 19.184 108.575 19.112C108.895 19.032 109.223 18.92 109.559 18.776V19.7C109.231 19.844 108.907 19.948 108.587 20.012C108.267 20.084 107.887 20.12 107.447 20.12C106.839 20.12 106.299 19.996 105.827 19.748C105.363 19.5 104.999 19.132 104.735 18.644C104.479 18.148 104.351 17.544 104.351 16.832C104.351 16.128 104.467 15.524 104.699 15.02C104.939 14.516 105.271 14.128 105.695 13.856C106.127 13.584 106.627 13.448 107.195 13.448ZM107.183 14.312C106.679 14.312 106.279 14.476 105.983 14.804C105.695 15.124 105.523 15.572 105.467 16.148H108.743C108.743 15.78 108.687 15.46 108.575 15.188C108.463 14.916 108.291 14.704 108.059 14.552C107.835 14.392 107.543 14.312 107.183 14.312ZM114.485 13.448C114.605 13.448 114.733 13.456 114.869 13.472C115.013 13.48 115.137 13.496 115.241 13.52L115.109 14.492C115.005 14.468 114.889 14.448 114.761 14.432C114.641 14.416 114.525 14.408 114.413 14.408C114.165 14.408 113.929 14.46 113.705 14.564C113.481 14.668 113.281 14.816 113.105 15.008C112.929 15.192 112.789 15.416 112.685 15.68C112.589 15.944 112.541 16.24 112.541 16.568V20H111.485V13.568H112.349L112.469 14.744H112.517C112.653 14.504 112.817 14.288 113.009 14.096C113.201 13.896 113.421 13.74 113.669 13.628C113.917 13.508 114.189 13.448 114.485 13.448ZM120.615 13.556C120.615 13.708 120.607 13.864 120.591 14.024C120.583 14.184 120.571 14.328 120.555 14.456H120.627C120.763 14.232 120.935 14.048 121.143 13.904C121.351 13.76 121.583 13.652 121.839 13.58C122.095 13.5 122.359 13.46 122.631 13.46C123.151 13.46 123.583 13.544 123.927 13.712C124.279 13.872 124.543 14.124 124.719 14.468C124.895 14.812 124.983 15.26 124.983 15.812V20H123.939V15.884C123.939 15.364 123.823 14.976 123.591 14.72C123.359 14.464 122.995 14.336 122.499 14.336C122.019 14.336 121.643 14.428 121.371 14.612C121.099 14.788 120.903 15.052 120.783 15.404C120.671 15.748 120.615 16.172 120.615 16.676V20H119.559V10.88H120.615V13.556ZM128.033 13.568V20H126.977V13.568H128.033ZM127.517 11.156C127.677 11.156 127.817 11.212 127.937 11.324C128.065 11.428 128.129 11.596 128.129 11.828C128.129 12.052 128.065 12.22 127.937 12.332C127.817 12.444 127.677 12.5 127.517 12.5C127.341 12.5 127.193 12.444 127.073 12.332C126.953 12.22 126.893 12.052 126.893 11.828C126.893 11.596 126.953 11.428 127.073 11.324C127.193 11.212 127.341 11.156 127.517 11.156ZM134.259 18.224C134.259 18.64 134.155 18.988 133.947 19.268C133.739 19.548 133.443 19.76 133.059 19.904C132.675 20.048 132.219 20.12 131.691 20.12C131.243 20.12 130.855 20.084 130.527 20.012C130.207 19.94 129.923 19.84 129.675 19.712V18.752C129.931 18.88 130.239 19 130.599 19.112C130.967 19.216 131.339 19.268 131.715 19.268C132.251 19.268 132.639 19.184 132.879 19.016C133.119 18.84 133.239 18.608 133.239 18.32C133.239 18.16 133.195 18.016 133.107 17.888C133.019 17.76 132.859 17.632 132.627 17.504C132.403 17.376 132.079 17.232 131.655 17.072C131.239 16.912 130.883 16.752 130.587 16.592C130.291 16.432 130.063 16.24 129.903 16.016C129.743 15.792 129.663 15.504 129.663 15.152C129.663 14.608 129.883 14.188 130.323 13.892C130.771 13.596 131.355 13.448 132.075 13.448C132.467 13.448 132.831 13.488 133.167 13.568C133.511 13.64 133.831 13.744 134.127 13.88L133.767 14.72C133.591 14.64 133.403 14.572 133.203 14.516C133.011 14.452 132.815 14.404 132.615 14.372C132.415 14.332 132.211 14.312 132.003 14.312C131.571 14.312 131.239 14.384 131.007 14.528C130.783 14.664 130.671 14.852 130.671 15.092C130.671 15.268 130.723 15.42 130.827 15.548C130.931 15.668 131.103 15.788 131.343 15.908C131.591 16.02 131.919 16.156 132.327 16.316C132.735 16.468 133.083 16.624 133.371 16.784C133.659 16.944 133.879 17.14 134.031 17.372C134.183 17.596 134.259 17.88 134.259 18.224ZM137.961 19.256C138.121 19.256 138.285 19.244 138.453 19.22C138.621 19.188 138.757 19.156 138.861 19.124V19.928C138.749 19.984 138.589 20.028 138.381 20.06C138.173 20.1 137.973 20.12 137.781 20.12C137.445 20.12 137.133 20.064 136.845 19.952C136.565 19.832 136.337 19.628 136.161 19.34C135.985 19.052 135.897 18.648 135.897 18.128V14.384H134.985V13.88L135.909 13.46L136.329 12.092H136.953V13.568H138.813V14.384H136.953V18.104C136.953 18.496 137.045 18.788 137.229 18.98C137.421 19.164 137.665 19.256 137.961 19.256ZM145.741 16.772C145.741 17.308 145.669 17.784 145.525 18.2C145.389 18.608 145.189 18.956 144.925 19.244C144.669 19.532 144.353 19.752 143.977 19.904C143.609 20.048 143.197 20.12 142.741 20.12C142.317 20.12 141.925 20.048 141.565 19.904C141.205 19.752 140.893 19.532 140.629 19.244C140.365 18.956 140.157 18.608 140.005 18.2C139.861 17.784 139.789 17.308 139.789 16.772C139.789 16.06 139.909 15.46 140.149 14.972C140.389 14.476 140.733 14.1 141.181 13.844C141.629 13.58 142.161 13.448 142.777 13.448C143.361 13.448 143.873 13.58 144.313 13.844C144.761 14.1 145.109 14.476 145.357 14.972C145.613 15.46 145.741 16.06 145.741 16.772ZM140.881 16.772C140.881 17.276 140.945 17.716 141.073 18.092C141.209 18.46 141.417 18.744 141.697 18.944C141.977 19.144 142.333 19.244 142.765 19.244C143.197 19.244 143.553 19.144 143.833 18.944C144.113 18.744 144.317 18.46 144.445 18.092C144.581 17.716 144.649 17.276 144.649 16.772C144.649 16.26 144.581 15.824 144.445 15.464C144.309 15.104 144.101 14.828 143.821 14.636C143.549 14.436 143.193 14.336 142.753 14.336C142.097 14.336 141.621 14.552 141.325 14.984C141.029 15.416 140.881 16.012 140.881 16.772ZM150.415 13.448C150.535 13.448 150.663 13.456 150.799 13.472C150.943 13.48 151.067 13.496 151.171 13.52L151.039 14.492C150.935 14.468 150.819 14.448 150.691 14.432C150.571 14.416 150.455 14.408 150.343 14.408C150.095 14.408 149.859 14.46 149.635 14.564C149.411 14.668 149.211 14.816 149.035 15.008C148.859 15.192 148.719 15.416 148.615 15.68C148.519 15.944 148.471 16.24 148.471 16.568V20H147.415V13.568H148.279L148.399 14.744H148.447C148.583 14.504 148.747 14.288 148.939 14.096C149.131 13.896 149.351 13.74 149.599 13.628C149.847 13.508 150.119 13.448 150.415 13.448ZM151.364 13.568H152.492L153.884 17.228C153.964 17.444 154.036 17.652 154.1 17.852C154.172 18.052 154.236 18.248 154.292 18.44C154.348 18.624 154.392 18.804 154.424 18.98H154.472C154.52 18.78 154.596 18.52 154.7 18.2C154.804 17.872 154.912 17.544 155.024 17.216L156.332 13.568H157.472L154.7 20.888C154.548 21.288 154.368 21.636 154.16 21.932C153.96 22.236 153.712 22.468 153.416 22.628C153.128 22.796 152.776 22.88 152.36 22.88C152.168 22.88 152 22.868 151.856 22.844C151.712 22.828 151.588 22.808 151.484 22.784V21.944C151.572 21.96 151.676 21.976 151.796 21.992C151.924 22.008 152.056 22.016 152.192 22.016C152.44 22.016 152.652 21.968 152.828 21.872C153.012 21.784 153.168 21.652 153.296 21.476C153.424 21.308 153.532 21.108 153.62 20.876L153.956 20.024L151.364 13.568Z" fill="white"/>
</g>
<defs>
<filter id="filter0_b_5_309" x="-7" y="-0.871155" width="342" height="56.8712" filterUnits="userSpaceOnUse" color-interpolation-filters="sRGB">
<feFlood flood-opacity="0" result="BackgroundImageFix"/>
<feGaussianBlur in="BackgroundImage" stdDeviation="3.5"/>
<feComposite in2="SourceAlpha" operator="in" result="effect1_backgroundBlur_5_309"/>
<feBlend mode="normal" in="SourceGraphic" in2="effect1_backgroundBlur_5_309" result="shape"/>
</filter>
<linearGradient id="paint0_linear_5_309" x1="-149.825" y1="15.4322" x2="-144.539" y2="73.2201" gradientUnits="userSpaceOnUse">
<stop stop-color="#FFACC6"/>
<stop offset="1" stop-color="#B6E0F5"/>
</linearGradient>
</defs>
</svg>
