<svg width="175" height="30" viewBox="0 0 175 30" fill="none" xmlns="http://www.w3.org/2000/svg">
<path d="M30 15C30 23.2843 23.2843 30 15 30C6.71573 30 0 23.2843 0 15C0 6.71573 6.71573 0 15 0C23.2843 0 30 6.71573 30 15ZM4.5 15C4.5 20.799 9.20101 25.5 15 25.5C20.799 25.5 25.5 20.799 25.5 15C25.5 9.20101 20.799 4.5 15 4.5C9.20101 4.5 4.5 9.20101 4.5 15Z" fill="#F5F5F5"/>
<g filter="url(#filter0_d_5_51)">
<path d="M15 0C16.9698 2.349e-08 18.9204 0.387987 20.7403 1.14181C22.5601 1.89563 24.2137 3.00052 25.6066 4.3934C26.9995 5.78628 28.1044 7.43987 28.8582 9.25975C29.612 11.0796 30 13.0302 30 15L25.5 15C25.5 13.6211 25.2284 12.2557 24.7007 10.9818C24.1731 9.70791 23.3996 8.5504 22.4246 7.57538C21.4496 6.60036 20.2921 5.82694 19.0182 5.29926C17.7443 4.77159 16.3789 4.5 15 4.5V0Z" fill="#3EB09B"/>
</g>
<path d="M12.72 18.5H11.67V13.76C11.67 13.5933 11.67 13.44 11.67 13.3C11.6767 13.1533 11.6833 13.0133 11.69 12.88C11.6967 12.74 11.7033 12.6067 11.71 12.48C11.6233 12.5667 11.5333 12.65 11.44 12.73C11.3467 12.81 11.24 12.9033 11.12 13.01L10.34 13.64L9.8 12.96L11.84 11.36H12.72V18.5ZM19.9927 14.92C19.9927 15.5 19.946 16.0167 19.8527 16.47C19.766 16.9233 19.626 17.31 19.4327 17.63C19.246 17.9433 18.996 18.1833 18.6827 18.35C18.376 18.5167 18.006 18.6 17.5727 18.6C17.026 18.6 16.576 18.4533 16.2227 18.16C15.8693 17.8667 15.606 17.4467 15.4327 16.9C15.2593 16.3467 15.1727 15.6867 15.1727 14.92C15.1727 14.1467 15.2493 13.4867 15.4027 12.94C15.5627 12.3933 15.8193 11.9767 16.1727 11.69C16.526 11.3967 16.9927 11.25 17.5727 11.25C18.1193 11.25 18.5693 11.3967 18.9227 11.69C19.2827 11.9767 19.5493 12.3933 19.7227 12.94C19.9027 13.4867 19.9927 14.1467 19.9927 14.92ZM16.2327 14.92C16.2327 15.54 16.276 16.0567 16.3627 16.47C16.4493 16.8833 16.5893 17.1933 16.7827 17.4C16.9827 17.6067 17.246 17.71 17.5727 17.71C17.8993 17.71 18.1593 17.61 18.3527 17.41C18.5527 17.2033 18.696 16.8933 18.7827 16.48C18.876 16.06 18.9227 15.54 18.9227 14.92C18.9227 14.3 18.876 13.7867 18.7827 13.38C18.696 12.9667 18.5527 12.6567 18.3527 12.45C18.1593 12.2433 17.8993 12.14 17.5727 12.14C17.246 12.14 16.9827 12.2433 16.7827 12.45C16.5893 12.6567 16.4493 12.9667 16.3627 13.38C16.276 13.7867 16.2327 14.3 16.2327 14.92Z" fill="#282828"/>
<path d="M50.838 11.004L48.178 21H46.904L44.958 14.448C44.902 14.252 44.846 14.0513 44.79 13.846C44.734 13.6407 44.6827 13.4447 44.636 13.258C44.5893 13.0713 44.5473 12.9127 44.51 12.782C44.482 12.642 44.4633 12.5393 44.454 12.474C44.4447 12.5393 44.426 12.642 44.398 12.782C44.3793 12.9127 44.3467 13.0713 44.3 13.258C44.2533 13.4447 44.202 13.6453 44.146 13.86C44.0993 14.0653 44.0433 14.2753 43.978 14.49L42.088 21H40.814L38.168 11.004H39.484L41.038 17.108C41.094 17.3227 41.1453 17.5373 41.192 17.752C41.2387 17.9573 41.2807 18.1627 41.318 18.368C41.3647 18.564 41.402 18.7553 41.43 18.942C41.458 19.1287 41.486 19.3107 41.514 19.488C41.542 19.3013 41.57 19.11 41.598 18.914C41.6353 18.718 41.6773 18.5173 41.724 18.312C41.7707 18.0973 41.822 17.8827 41.878 17.668C41.934 17.4533 41.99 17.2433 42.046 17.038L43.81 11.004H45.112L46.946 17.08C47.0113 17.2947 47.072 17.514 47.128 17.738C47.184 17.9527 47.2353 18.1627 47.282 18.368C47.3287 18.5733 47.366 18.774 47.394 18.97C47.4313 19.1567 47.464 19.3293 47.492 19.488C47.52 19.2547 47.5573 19.012 47.604 18.76C47.6507 18.4987 47.7067 18.228 47.772 17.948C47.8373 17.668 47.9073 17.3833 47.982 17.094L49.522 11.004H50.838ZM54.8302 13.356C55.4742 13.356 56.0249 13.496 56.4822 13.776C56.9489 14.056 57.3035 14.4527 57.5462 14.966C57.7982 15.47 57.9242 16.0627 57.9242 16.744V17.486H52.7862C52.8049 18.3353 53.0195 18.984 53.4302 19.432C53.8502 19.8707 54.4335 20.09 55.1802 20.09C55.6562 20.09 56.0762 20.048 56.4402 19.964C56.8135 19.8707 57.1962 19.74 57.5882 19.572V20.65C57.2055 20.818 56.8275 20.9393 56.4542 21.014C56.0809 21.098 55.6375 21.14 55.1242 21.14C54.4149 21.14 53.7849 20.9953 53.2342 20.706C52.6929 20.4167 52.2682 19.9873 51.9602 19.418C51.6615 18.8393 51.5122 18.1347 51.5122 17.304C51.5122 16.4827 51.6475 15.778 51.9182 15.19C52.1982 14.602 52.5855 14.1493 53.0802 13.832C53.5842 13.5147 54.1675 13.356 54.8302 13.356ZM54.8162 14.364C54.2282 14.364 53.7615 14.5553 53.4162 14.938C53.0802 15.3113 52.8795 15.834 52.8142 16.506H56.6362C56.6362 16.0767 56.5709 15.7033 56.4402 15.386C56.3095 15.0687 56.1089 14.8213 55.8382 14.644C55.5769 14.4573 55.2362 14.364 54.8162 14.364ZM62.7325 13.356C63.3765 13.356 63.9272 13.496 64.3845 13.776C64.8512 14.056 65.2059 14.4527 65.4485 14.966C65.7005 15.47 65.8265 16.0627 65.8265 16.744V17.486H60.6885C60.7072 18.3353 60.9219 18.984 61.3325 19.432C61.7525 19.8707 62.3359 20.09 63.0825 20.09C63.5585 20.09 63.9785 20.048 64.3425 19.964C64.7159 19.8707 65.0985 19.74 65.4905 19.572V20.65C65.1079 20.818 64.7299 20.9393 64.3565 21.014C63.9832 21.098 63.5399 21.14 63.0265 21.14C62.3172 21.14 61.6872 20.9953 61.1365 20.706C60.5952 20.4167 60.1705 19.9873 59.8625 19.418C59.5639 18.8393 59.4145 18.1347 59.4145 17.304C59.4145 16.4827 59.5499 15.778 59.8205 15.19C60.1005 14.602 60.4879 14.1493 60.9825 13.832C61.4865 13.5147 62.0699 13.356 62.7325 13.356ZM62.7185 14.364C62.1305 14.364 61.6639 14.5553 61.3185 14.938C60.9825 15.3113 60.7819 15.834 60.7165 16.506H64.5385C64.5385 16.0767 64.4732 15.7033 64.3425 15.386C64.2119 15.0687 64.0112 14.8213 63.7405 14.644C63.4792 14.4573 63.1385 14.364 62.7185 14.364ZM68.9549 15.918C68.9549 16.0673 68.9455 16.2633 68.9269 16.506C68.9175 16.7487 68.9082 16.9587 68.8989 17.136H68.9549C69.0109 17.0613 69.0949 16.954 69.2069 16.814C69.3189 16.674 69.4309 16.534 69.5429 16.394C69.6642 16.2447 69.7669 16.1233 69.8509 16.03L72.2449 13.496H73.6869L70.6489 16.702L73.8969 21H72.4129L69.8089 17.5L68.9549 18.242V21H67.7369V10.36H68.9549V15.918ZM80.1014 18.928C80.1014 19.4133 79.9801 19.8193 79.7374 20.146C79.4947 20.4727 79.1494 20.72 78.7014 20.888C78.2534 21.056 77.7214 21.14 77.1054 21.14C76.5827 21.14 76.1301 21.098 75.7474 21.014C75.3741 20.93 75.0427 20.8133 74.7534 20.664V19.544C75.0521 19.6933 75.4114 19.8333 75.8314 19.964C76.2607 20.0853 76.6947 20.146 77.1334 20.146C77.7587 20.146 78.2114 20.048 78.4914 19.852C78.7714 19.6467 78.9114 19.376 78.9114 19.04C78.9114 18.8533 78.8601 18.6853 78.7574 18.536C78.6547 18.3867 78.4681 18.2373 78.1974 18.088C77.9361 17.9387 77.5581 17.7707 77.0634 17.584C76.5781 17.3973 76.1627 17.2107 75.8174 17.024C75.4721 16.8373 75.2061 16.6133 75.0194 16.352C74.8327 16.0907 74.7394 15.7547 74.7394 15.344C74.7394 14.7093 74.9961 14.2193 75.5094 13.874C76.0321 13.5287 76.7134 13.356 77.5534 13.356C78.0107 13.356 78.4354 13.4027 78.8274 13.496C79.2287 13.58 79.6021 13.7013 79.9474 13.86L79.5274 14.84C79.3221 14.7467 79.1027 14.6673 78.8694 14.602C78.6454 14.5273 78.4167 14.4713 78.1834 14.434C77.9501 14.3873 77.7121 14.364 77.4694 14.364C76.9654 14.364 76.5781 14.448 76.3074 14.616C76.0461 14.7747 75.9154 14.994 75.9154 15.274C75.9154 15.4793 75.9761 15.6567 76.0974 15.806C76.2187 15.946 76.4194 16.086 76.6994 16.226C76.9887 16.3567 77.3714 16.5153 77.8474 16.702C78.3234 16.8793 78.7294 17.0613 79.0654 17.248C79.4014 17.4347 79.6581 17.6633 79.8354 17.934C80.0127 18.1953 80.1014 18.5267 80.1014 18.928Z" fill="#282828"/>
<path d="M135 15C135 23.2843 128.284 30 120 30C111.716 30 105 23.2843 105 15C105 6.71573 111.716 0 120 0C128.284 0 135 6.71573 135 15ZM109.5 15C109.5 20.799 114.201 25.5 120 25.5C125.799 25.5 130.5 20.799 130.5 15C130.5 9.20101 125.799 4.5 120 4.5C114.201 4.5 109.5 9.20101 109.5 15Z" fill="#F5F5F5"/>
<g filter="url(#filter1_d_5_51)">
<path d="M120 0C122.041 2.43356e-08 124.06 0.41642 125.934 1.22378C127.809 2.03113 129.498 3.21245 130.9 4.69542C132.302 6.1784 133.387 7.93185 134.088 9.84847C134.789 11.7651 135.091 13.8046 134.976 15.8421L130.483 15.5895C130.564 14.1632 130.352 12.7356 129.861 11.3939C129.371 10.0523 128.612 8.82488 127.63 7.7868C126.649 6.74871 125.466 5.92179 124.154 5.35664C122.842 4.79149 121.429 4.5 120 4.5V0Z" fill="#3EB09B"/>
</g>
<path d="M115.29 18.5L118.14 12.3H114.39V11.36H119.28V12.12L116.44 18.5H115.29ZM124.703 13.01C124.703 13.33 124.639 13.61 124.513 13.85C124.393 14.0833 124.219 14.2733 123.993 14.42C123.766 14.5667 123.506 14.6733 123.213 14.74V14.78C123.786 14.8467 124.213 15.0267 124.493 15.32C124.779 15.6067 124.923 15.9867 124.923 16.46C124.923 16.8733 124.823 17.2433 124.623 17.57C124.429 17.89 124.126 18.1433 123.713 18.33C123.306 18.51 122.783 18.6 122.143 18.6C121.763 18.6 121.409 18.57 121.083 18.51C120.756 18.45 120.446 18.35 120.153 18.21V17.25C120.453 17.4033 120.773 17.52 121.113 17.6C121.459 17.68 121.789 17.72 122.103 17.72C122.709 17.72 123.146 17.6067 123.413 17.38C123.679 17.1467 123.813 16.8233 123.813 16.41C123.813 16.1433 123.743 15.9267 123.603 15.76C123.463 15.5867 123.249 15.46 122.963 15.38C122.676 15.2933 122.319 15.25 121.893 15.25H121.243V14.38H121.903C122.309 14.38 122.639 14.33 122.893 14.23C123.146 14.1233 123.333 13.9767 123.453 13.79C123.573 13.6033 123.633 13.39 123.633 13.15C123.633 12.83 123.526 12.5833 123.313 12.41C123.106 12.23 122.806 12.14 122.413 12.14C122.173 12.14 121.949 12.1667 121.743 12.22C121.543 12.2733 121.359 12.3433 121.193 12.43C121.026 12.5167 120.863 12.6133 120.703 12.72L120.183 11.99C120.363 11.8567 120.563 11.7333 120.783 11.62C121.009 11.5067 121.259 11.42 121.533 11.36C121.813 11.2933 122.116 11.26 122.443 11.26C123.183 11.26 123.743 11.4233 124.123 11.75C124.509 12.07 124.703 12.49 124.703 13.01Z" fill="#282828"/>
<path d="M152.366 15.904C152.366 17.024 152.156 17.962 151.736 18.718C151.325 19.474 150.733 20.0433 149.958 20.426C149.183 20.8087 148.245 21 147.144 21H144.358V11.004H147.438C148.446 11.004 149.319 11.1907 150.056 11.564C150.793 11.9373 151.363 12.488 151.764 13.216C152.165 13.9347 152.366 14.8307 152.366 15.904ZM151.036 15.946C151.036 15.0593 150.887 14.3313 150.588 13.762C150.299 13.1927 149.869 12.7727 149.3 12.502C148.74 12.222 148.059 12.082 147.256 12.082H145.618V19.922H146.976C148.329 19.922 149.342 19.5907 150.014 18.928C150.695 18.256 151.036 17.262 151.036 15.946ZM157.259 13.37C158.173 13.37 158.85 13.5707 159.289 13.972C159.727 14.3733 159.947 15.0127 159.947 15.89V21H159.051L158.813 19.936H158.757C158.542 20.2067 158.318 20.4353 158.085 20.622C157.861 20.7993 157.599 20.93 157.301 21.014C157.011 21.098 156.657 21.14 156.237 21.14C155.789 21.14 155.383 21.0607 155.019 20.902C154.664 20.7433 154.384 20.5007 154.179 20.174C153.973 19.838 153.871 19.418 153.871 18.914C153.871 18.1673 154.165 17.5933 154.753 17.192C155.341 16.7813 156.246 16.5573 157.469 16.52L158.743 16.478V16.03C158.743 15.4047 158.607 14.9707 158.337 14.728C158.066 14.4853 157.683 14.364 157.189 14.364C156.797 14.364 156.423 14.4247 156.069 14.546C155.714 14.658 155.383 14.7887 155.075 14.938L154.697 14.014C155.023 13.8367 155.411 13.6873 155.859 13.566C156.307 13.4353 156.773 13.37 157.259 13.37ZM157.623 17.374C156.689 17.4113 156.041 17.5607 155.677 17.822C155.322 18.0833 155.145 18.452 155.145 18.928C155.145 19.348 155.271 19.656 155.523 19.852C155.784 20.048 156.115 20.146 156.517 20.146C157.151 20.146 157.679 19.9733 158.099 19.628C158.519 19.2733 158.729 18.732 158.729 18.004V17.332L157.623 17.374ZM161.088 13.496H162.404L164.028 17.766C164.122 18.018 164.206 18.2607 164.28 18.494C164.364 18.7273 164.439 18.956 164.504 19.18C164.57 19.3947 164.621 19.6047 164.658 19.81H164.714C164.77 19.5767 164.859 19.2733 164.98 18.9C165.102 18.5173 165.228 18.1347 165.358 17.752L166.884 13.496H168.214L164.98 22.036C164.803 22.5027 164.593 22.9087 164.35 23.254C164.117 23.6087 163.828 23.8793 163.482 24.066C163.146 24.262 162.736 24.36 162.25 24.36C162.026 24.36 161.83 24.346 161.662 24.318C161.494 24.2993 161.35 24.276 161.228 24.248V23.268C161.331 23.2867 161.452 23.3053 161.592 23.324C161.742 23.3427 161.896 23.352 162.054 23.352C162.344 23.352 162.591 23.296 162.796 23.184C163.011 23.0813 163.193 22.9273 163.342 22.722C163.492 22.526 163.618 22.2927 163.72 22.022L164.112 21.028L161.088 13.496ZM174.287 18.928C174.287 19.4133 174.166 19.8193 173.923 20.146C173.68 20.4727 173.335 20.72 172.887 20.888C172.439 21.056 171.907 21.14 171.291 21.14C170.768 21.14 170.316 21.098 169.933 21.014C169.56 20.93 169.228 20.8133 168.939 20.664V19.544C169.238 19.6933 169.597 19.8333 170.017 19.964C170.446 20.0853 170.88 20.146 171.319 20.146C171.944 20.146 172.397 20.048 172.677 19.852C172.957 19.6467 173.097 19.376 173.097 19.04C173.097 18.8533 173.046 18.6853 172.943 18.536C172.84 18.3867 172.654 18.2373 172.383 18.088C172.122 17.9387 171.744 17.7707 171.249 17.584C170.764 17.3973 170.348 17.2107 170.003 17.024C169.658 16.8373 169.392 16.6133 169.205 16.352C169.018 16.0907 168.925 15.7547 168.925 15.344C168.925 14.7093 169.182 14.2193 169.695 13.874C170.218 13.5287 170.899 13.356 171.739 13.356C172.196 13.356 172.621 13.4027 173.013 13.496C173.414 13.58 173.788 13.7013 174.133 13.86L173.713 14.84C173.508 14.7467 173.288 14.6673 173.055 14.602C172.831 14.5273 172.602 14.4713 172.369 14.434C172.136 14.3873 171.898 14.364 171.655 14.364C171.151 14.364 170.764 14.448 170.493 14.616C170.232 14.7747 170.101 14.994 170.101 15.274C170.101 15.4793 170.162 15.6567 170.283 15.806C170.404 15.946 170.605 16.086 170.885 16.226C171.174 16.3567 171.557 16.5153 172.033 16.702C172.509 16.8793 172.915 17.0613 173.251 17.248C173.587 17.4347 173.844 17.6633 174.021 17.934C174.198 18.1953 174.287 18.5267 174.287 18.928Z" fill="#282828"/>
<defs>
<filter id="filter0_d_5_51" x="11" y="0" width="19" height="19" filterUnits="userSpaceOnUse" color-interpolation-filters="sRGB">
<feFlood flood-opacity="0" result="BackgroundImageFix"/>
<feColorMatrix in="SourceAlpha" type="matrix" values="0 0 0 0 0 0 0 0 0 0 0 0 0 0 0 0 0 0 127 0" result="hardAlpha"/>
<feOffset dx="-2" dy="2"/>
<feGaussianBlur stdDeviation="1"/>
<feColorMatrix type="matrix" values="0 0 0 0 0.243137 0 0 0 0 0.690196 0 0 0 0 0.607843 0 0 0 0.2 0"/>
<feBlend mode="normal" in2="BackgroundImageFix" result="effect1_dropShadow_5_51"/>
<feBlend mode="normal" in="SourceGraphic" in2="effect1_dropShadow_5_51" result="shape"/>
</filter>
<filter id="filter1_d_5_51" x="116" y="0" width="19" height="19.8421" filterUnits="userSpaceOnUse" color-interpolation-filters="sRGB">
<feFlood flood-opacity="0" result="BackgroundImageFix"/>
<feColorMatrix in="SourceAlpha" type="matrix" values="0 0 0 0 0 0 0 0 0 0 0 0 0 0 0 0 0 0 127 0" result="hardAlpha"/>
<feOffset dx="-2" dy="2"/>
<feGaussianBlur stdDeviation="1"/>
<feColorMatrix type="matrix" values="0 0 0 0 0.243137 0 0 0 0 0.690196 0 0 0 0 0.607843 0 0 0 0.2 0"/>
<feBlend mode="normal" in2="BackgroundImageFix" result="effect1_dropShadow_5_51"/>
<feBlend mode="normal" in="SourceGraphic" in2="effect1_dropShadow_5_51" result="shape"/>
</filter>
</defs>
</svg>
