<svg width="328" height="30" viewBox="0 0 328 30" fill="none" xmlns="http://www.w3.org/2000/svg">
<mask id="mask0_5_212" style="mask-type:alpha" maskUnits="userSpaceOnUse" x="0" y="0" width="328" height="30">
<path d="M0 4C0 1.79086 1.79086 0 4 0H324C326.209 0 328 1.79086 328 4V30H0V4Z" fill="url(#paint0_linear_5_212)"/>
</mask>
<g mask="url(#mask0_5_212)">
<path d="M0 4C0 1.79086 1.79086 0 4 0H324C326.209 0 328 1.79086 328 4V30H0V4Z" fill="#EE6093"/>
<path opacity="0.1" fill-rule="evenodd" clip-rule="evenodd" d="M419 8.97727L410.933 11.3636C402.866 14.1477 386.732 19.3182 370.598 22.5C353.119 25.6818 347.134 21.8977 331 21.5C314.866 20.7045 297.634 12.7955 281.5 12C265.366 11.2045 238.835 23.2955 222.701 20.5114C206.567 17.7273 190.433 11.3636 174.299 8.97727C158.165 6.19318 140.686 7.38636 124.552 10.1705C108.418 12.5568 92.2835 16.5341 76.1494 16.5341C60.0152 16.5341 43.8811 12.5568 26.4024 10.1705C10.2683 7.38636 -5.86584 6.19318 -13.9329 5.39773L-22 5V40H-13.9329C-5.86584 40 10.2683 40 26.4024 40C43.8811 40 60.0152 40 76.1494 40C92.2835 40 108.418 40 124.552 40C140.686 40 158.165 40 174.299 40C190.433 40 206.567 40 222.701 40C238.835 40 256.314 40 272.448 40C288.582 40 304.716 40 320.851 40C336.985 40 353.119 40 370.598 40C386.732 40 402.866 40 410.933 40H419V8.97727Z" fill="white"/>
<g filter="url(#filter0_b_5_212)">
<path fill-rule="evenodd" clip-rule="evenodd" d="M347 5L337.5 9.05186C330.5 9.05186 299 2.71862 285 9.05186C271 15.3851 258 26.9743 244 26C230 25.5128 219 15.3851 205 9.05186C191 2.71862 178 4.66731 164 9.05186C150 13.9236 137 21.7183 123 22.6927C109 23.667 96 17.3338 82 16.3594C68 15.3851 55 20.2568 41 20.2568C27 20.2568 14 15.3851 7 13.4364L0 11.0005V49H7C14 49 27 49 41 49C55 49 68 49 82 49C96 49 109 49 123 49C137 49 150 49 164 49C178 49 191 49 205 49C219 49 232 49 246 49C260 49 273 49 287 49C301 49 314 49 321 49H328L347 5Z" fill="white" fill-opacity="0.1"/>
</g>
<path d="M310.662 8H307.308V9.06466H310.091L304.469 14.6854L305.288 15.5044L310.919 9.87435V12.6651H312V9.33826C312 8.59917 311.401 8 310.662 8Z" fill="white"/>
<path d="M309.996 20.4207C309.996 20.7469 309.741 21.0112 309.427 21.0112H299.573C299.259 21.0112 299.004 20.7469 299.004 20.4207V10.5791C299.004 10.253 299.259 9.98862 299.573 9.98862H305.858V9H299.243C298.556 9 298 9.55637 298 10.2427V20.7573C298 21.4436 298.556 22 299.243 22H309.757C310.444 22 311 21.4436 311 20.7573V14.1177H309.996V20.4207H309.996Z" fill="white"/>
<path d="M23.584 20H22.084L19.276 16.052L18.436 16.748V20H17.14V11.432H18.436V15.572C18.644 15.324 18.852 15.08 19.06 14.84C19.268 14.6 19.476 14.36 19.684 14.12L22 11.432H23.488L20.212 15.176L23.584 20ZM25.85 13.532V20H24.578V13.532H25.85ZM25.226 11.072C25.418 11.072 25.586 11.128 25.73 11.24C25.874 11.352 25.946 11.54 25.946 11.804C25.946 12.06 25.874 12.248 25.73 12.368C25.586 12.48 25.418 12.536 25.226 12.536C25.018 12.536 24.842 12.48 24.698 12.368C24.562 12.248 24.494 12.06 24.494 11.804C24.494 11.54 24.562 11.352 24.698 11.24C24.842 11.128 25.018 11.072 25.226 11.072ZM30.4516 20.12C29.8596 20.12 29.3396 20.004 28.8916 19.772C28.4436 19.54 28.0956 19.18 27.8476 18.692C27.5996 18.196 27.4756 17.568 27.4756 16.808C27.4756 16.008 27.6076 15.36 27.8716 14.864C28.1436 14.368 28.5076 14.004 28.9636 13.772C29.4276 13.532 29.9556 13.412 30.5476 13.412C30.9076 13.412 31.2436 13.452 31.5556 13.532C31.8756 13.604 32.1396 13.688 32.3476 13.784L31.9636 14.816C31.7396 14.728 31.4996 14.652 31.2436 14.588C30.9956 14.524 30.7596 14.492 30.5356 14.492C30.1356 14.492 29.8036 14.58 29.5396 14.756C29.2836 14.924 29.0916 15.18 28.9636 15.524C28.8436 15.86 28.7836 16.284 28.7836 16.796C28.7836 17.284 28.8476 17.696 28.9756 18.032C29.1036 18.368 29.2916 18.624 29.5396 18.8C29.7956 18.968 30.1116 19.052 30.4876 19.052C30.8476 19.052 31.1636 19.012 31.4356 18.932C31.7076 18.852 31.9636 18.748 32.2036 18.62V19.724C31.9716 19.86 31.7196 19.96 31.4476 20.024C31.1756 20.088 30.8436 20.12 30.4516 20.12ZM34.9904 15.44C34.9904 15.608 34.9824 15.8 34.9664 16.016C34.9584 16.232 34.9464 16.432 34.9304 16.616H34.9664C35.0304 16.536 35.1064 16.44 35.1944 16.328C35.2904 16.208 35.3864 16.088 35.4824 15.968C35.5784 15.848 35.6664 15.744 35.7464 15.656L37.7264 13.532H39.2024L36.5984 16.304L39.3704 20H37.8704L35.7344 17.108L34.9904 17.732V20H33.7304V10.88H34.9904V15.44ZM46.1547 20.12C45.5627 20.12 45.0427 20.004 44.5947 19.772C44.1467 19.54 43.7987 19.18 43.5507 18.692C43.3027 18.196 43.1787 17.568 43.1787 16.808C43.1787 16.008 43.3107 15.36 43.5747 14.864C43.8467 14.368 44.2107 14.004 44.6667 13.772C45.1307 13.532 45.6587 13.412 46.2507 13.412C46.6107 13.412 46.9467 13.452 47.2587 13.532C47.5787 13.604 47.8427 13.688 48.0507 13.784L47.6667 14.816C47.4427 14.728 47.2027 14.652 46.9467 14.588C46.6987 14.524 46.4627 14.492 46.2387 14.492C45.8387 14.492 45.5067 14.58 45.2427 14.756C44.9867 14.924 44.7947 15.18 44.6667 15.524C44.5467 15.86 44.4867 16.284 44.4867 16.796C44.4867 17.284 44.5507 17.696 44.6787 18.032C44.8067 18.368 44.9947 18.624 45.2427 18.8C45.4987 18.968 45.8147 19.052 46.1907 19.052C46.5507 19.052 46.8667 19.012 47.1387 18.932C47.4107 18.852 47.6667 18.748 47.9067 18.62V19.724C47.6747 19.86 47.4227 19.96 47.1507 20.024C46.8787 20.088 46.5467 20.12 46.1547 20.12ZM55.1335 16.76C55.1335 17.296 55.0615 17.772 54.9175 18.188C54.7735 18.604 54.5695 18.956 54.3055 19.244C54.0415 19.532 53.7215 19.752 53.3455 19.904C52.9695 20.048 52.5455 20.12 52.0735 20.12C51.6415 20.12 51.2415 20.048 50.8735 19.904C50.5055 19.752 50.1855 19.532 49.9135 19.244C49.6495 18.956 49.4415 18.604 49.2895 18.188C49.1375 17.772 49.0615 17.292 49.0615 16.748C49.0615 16.036 49.1815 15.432 49.4215 14.936C49.6695 14.44 50.0215 14.064 50.4775 13.808C50.9415 13.544 51.4855 13.412 52.1095 13.412C52.7015 13.412 53.2215 13.544 53.6695 13.808C54.1255 14.064 54.4815 14.44 54.7375 14.936C55.0015 15.432 55.1335 16.04 55.1335 16.76ZM50.3695 16.76C50.3695 17.24 50.4295 17.656 50.5495 18.008C50.6695 18.352 50.8575 18.616 51.1135 18.8C51.3695 18.984 51.6975 19.076 52.0975 19.076C52.4975 19.076 52.8255 18.984 53.0815 18.8C53.3375 18.616 53.5255 18.352 53.6455 18.008C53.7655 17.656 53.8255 17.24 53.8255 16.76C53.8255 16.264 53.7615 15.848 53.6335 15.512C53.5135 15.176 53.3255 14.92 53.0695 14.744C52.8215 14.56 52.4935 14.468 52.0855 14.468C51.4855 14.468 51.0495 14.668 50.7775 15.068C50.5055 15.468 50.3695 16.032 50.3695 16.76ZM62.314 13.532V20H61.294L61.114 19.148H61.054C60.918 19.372 60.742 19.556 60.526 19.7C60.31 19.844 60.074 19.948 59.818 20.012C59.562 20.084 59.298 20.12 59.026 20.12C58.522 20.12 58.094 20.04 57.742 19.88C57.398 19.712 57.134 19.456 56.95 19.112C56.774 18.76 56.686 18.312 56.686 17.768V13.532H57.97V17.576C57.97 18.08 58.074 18.456 58.282 18.704C58.498 18.952 58.83 19.076 59.278 19.076C59.726 19.076 60.078 18.988 60.334 18.812C60.59 18.636 60.77 18.38 60.874 18.044C60.986 17.7 61.042 17.288 61.042 16.808V13.532H62.314ZM67.5806 13.412C68.3326 13.412 68.9086 13.6 69.3086 13.976C69.7086 14.352 69.9086 14.956 69.9086 15.788V20H68.6486V15.968C68.6486 15.464 68.5406 15.088 68.3246 14.84C68.1166 14.584 67.7806 14.456 67.3166 14.456C66.6606 14.456 66.2046 14.652 65.9486 15.044C65.7006 15.436 65.5766 16 65.5766 16.736V20H64.3046V13.532H65.3126L65.4926 14.396H65.5646C65.7086 14.172 65.8846 13.988 66.0926 13.844C66.3006 13.7 66.5326 13.592 66.7886 13.52C67.0446 13.448 67.3086 13.412 67.5806 13.412ZM74.1912 19.088C74.3592 19.088 74.5312 19.072 74.7072 19.04C74.8832 19.008 75.0352 18.972 75.1632 18.932V19.892C75.0272 19.956 74.8432 20.008 74.6112 20.048C74.3792 20.096 74.1472 20.12 73.9152 20.12C73.5632 20.12 73.2392 20.06 72.9432 19.94C72.6552 19.82 72.4232 19.612 72.2472 19.316C72.0712 19.02 71.9832 18.608 71.9832 18.08V14.504H71.0832V13.928L72.0312 13.448L72.4752 12.08H73.2552V13.532H75.1032V14.504H73.2552V18.056C73.2552 18.408 73.3392 18.668 73.5072 18.836C73.6832 19.004 73.9112 19.088 74.1912 19.088ZM79.0009 13.412C79.5689 13.412 80.0569 13.532 80.4649 13.772C80.8729 14.004 81.1849 14.34 81.4009 14.78C81.6249 15.22 81.7369 15.74 81.7369 16.34V17.036H77.3929C77.4089 17.7 77.5809 18.208 77.9089 18.56C78.2449 18.912 78.7129 19.088 79.3129 19.088C79.7289 19.088 80.0969 19.052 80.4169 18.98C80.7449 18.9 81.0809 18.784 81.4249 18.632V19.688C81.1049 19.832 80.7769 19.94 80.4409 20.012C80.1129 20.084 79.7209 20.12 79.2649 20.12C78.6409 20.12 78.0889 19.996 77.6089 19.748C77.1289 19.5 76.7529 19.132 76.4809 18.644C76.2169 18.148 76.0849 17.54 76.0849 16.82C76.0849 16.092 76.2049 15.476 76.4449 14.972C76.6929 14.468 77.0329 14.084 77.4649 13.82C77.9049 13.548 78.4169 13.412 79.0009 13.412ZM79.0009 14.396C78.5449 14.396 78.1769 14.544 77.8969 14.84C77.6249 15.136 77.4649 15.556 77.4169 16.1H80.4649C80.4649 15.764 80.4129 15.468 80.3089 15.212C80.2049 14.956 80.0449 14.756 79.8289 14.612C79.6129 14.468 79.3369 14.396 79.0009 14.396ZM86.5161 13.412C86.6281 13.412 86.7521 13.42 86.8881 13.436C87.0241 13.444 87.1361 13.456 87.2241 13.472L87.0921 14.66C87.0041 14.636 86.9001 14.616 86.7801 14.6C86.6601 14.584 86.5481 14.576 86.4441 14.576C86.2041 14.576 85.9721 14.624 85.7481 14.72C85.5321 14.808 85.3361 14.94 85.1601 15.116C84.9841 15.284 84.8441 15.492 84.7401 15.74C84.6441 15.988 84.5961 16.272 84.5961 16.592V20H83.3241V13.532H84.3321L84.5001 14.684H84.5481C84.6841 14.452 84.8481 14.24 85.0401 14.048C85.2321 13.856 85.4521 13.704 85.7001 13.592C85.9481 13.472 86.2201 13.412 86.5161 13.412ZM92.811 13.316C92.811 13.516 92.803 13.716 92.787 13.916C92.771 14.116 92.755 14.28 92.739 14.408H92.823C92.959 14.184 93.127 14 93.327 13.856C93.535 13.712 93.763 13.604 94.011 13.532C94.267 13.46 94.527 13.424 94.791 13.424C95.303 13.424 95.731 13.508 96.075 13.676C96.427 13.836 96.691 14.092 96.867 14.444C97.051 14.788 97.143 15.236 97.143 15.788V20H95.883V15.968C95.883 15.464 95.775 15.088 95.559 14.84C95.351 14.584 95.015 14.456 94.551 14.456C94.111 14.456 93.763 14.544 93.507 14.72C93.259 14.896 93.079 15.156 92.967 15.5C92.863 15.836 92.811 16.252 92.811 16.748V20H91.539V10.88H92.811V13.316ZM100.37 13.532V20H99.0976V13.532H100.37ZM99.7456 11.072C99.9376 11.072 100.106 11.128 100.25 11.24C100.394 11.352 100.466 11.54 100.466 11.804C100.466 12.06 100.394 12.248 100.25 12.368C100.106 12.48 99.9376 12.536 99.7456 12.536C99.5376 12.536 99.3616 12.48 99.2176 12.368C99.0816 12.248 99.0136 12.06 99.0136 11.804C99.0136 11.54 99.0816 11.352 99.2176 11.24C99.3616 11.128 99.5376 11.072 99.7456 11.072ZM106.663 18.176C106.663 18.6 106.559 18.956 106.351 19.244C106.143 19.532 105.843 19.752 105.451 19.904C105.059 20.048 104.587 20.12 104.035 20.12C103.579 20.12 103.187 20.084 102.859 20.012C102.539 19.948 102.243 19.852 101.971 19.724V18.608C102.259 18.744 102.591 18.868 102.967 18.98C103.343 19.084 103.711 19.136 104.071 19.136C104.551 19.136 104.895 19.06 105.103 18.908C105.319 18.756 105.427 18.552 105.427 18.296C105.427 18.152 105.387 18.024 105.307 17.912C105.227 17.792 105.075 17.672 104.851 17.552C104.635 17.424 104.315 17.28 103.891 17.12C103.483 16.952 103.135 16.788 102.847 16.628C102.559 16.46 102.339 16.264 102.187 16.04C102.035 15.808 101.959 15.512 101.959 15.152C101.959 14.592 102.183 14.164 102.631 13.868C103.087 13.564 103.687 13.412 104.431 13.412C104.823 13.412 105.191 13.452 105.535 13.532C105.887 13.604 106.227 13.716 106.555 13.868L106.135 14.84C105.951 14.752 105.759 14.68 105.559 14.624C105.367 14.56 105.171 14.508 104.971 14.468C104.779 14.428 104.579 14.408 104.371 14.408C103.987 14.408 103.695 14.468 103.495 14.588C103.295 14.708 103.195 14.876 103.195 15.092C103.195 15.244 103.239 15.376 103.327 15.488C103.423 15.6 103.587 15.712 103.819 15.824C104.051 15.936 104.367 16.072 104.767 16.232C105.167 16.384 105.507 16.54 105.787 16.7C106.075 16.86 106.291 17.056 106.435 17.288C106.587 17.52 106.663 17.816 106.663 18.176ZM110.508 19.088C110.676 19.088 110.848 19.072 111.024 19.04C111.2 19.008 111.352 18.972 111.48 18.932V19.892C111.344 19.956 111.16 20.008 110.928 20.048C110.696 20.096 110.464 20.12 110.232 20.12C109.88 20.12 109.556 20.06 109.26 19.94C108.972 19.82 108.74 19.612 108.564 19.316C108.388 19.02 108.3 18.608 108.3 18.08V14.504H107.4V13.928L108.348 13.448L108.792 12.08H109.572V13.532H111.42V14.504H109.572V18.056C109.572 18.408 109.656 18.668 109.824 18.836C110 19.004 110.228 19.088 110.508 19.088ZM118.473 16.76C118.473 17.296 118.401 17.772 118.257 18.188C118.113 18.604 117.909 18.956 117.645 19.244C117.381 19.532 117.061 19.752 116.685 19.904C116.309 20.048 115.885 20.12 115.413 20.12C114.981 20.12 114.581 20.048 114.213 19.904C113.845 19.752 113.525 19.532 113.253 19.244C112.989 18.956 112.781 18.604 112.629 18.188C112.477 17.772 112.401 17.292 112.401 16.748C112.401 16.036 112.521 15.432 112.761 14.936C113.009 14.44 113.361 14.064 113.817 13.808C114.281 13.544 114.825 13.412 115.449 13.412C116.041 13.412 116.561 13.544 117.009 13.808C117.465 14.064 117.821 14.44 118.077 14.936C118.341 15.432 118.473 16.04 118.473 16.76ZM113.709 16.76C113.709 17.24 113.769 17.656 113.889 18.008C114.009 18.352 114.197 18.616 114.453 18.8C114.709 18.984 115.037 19.076 115.437 19.076C115.837 19.076 116.165 18.984 116.421 18.8C116.677 18.616 116.865 18.352 116.985 18.008C117.105 17.656 117.165 17.24 117.165 16.76C117.165 16.264 117.101 15.848 116.973 15.512C116.853 15.176 116.665 14.92 116.409 14.744C116.161 14.56 115.833 14.468 115.425 14.468C114.825 14.468 114.389 14.668 114.117 15.068C113.845 15.468 113.709 16.032 113.709 16.76ZM123.278 13.412C123.39 13.412 123.514 13.42 123.65 13.436C123.786 13.444 123.898 13.456 123.986 13.472L123.854 14.66C123.766 14.636 123.662 14.616 123.542 14.6C123.422 14.584 123.31 14.576 123.206 14.576C122.966 14.576 122.734 14.624 122.51 14.72C122.294 14.808 122.098 14.94 121.922 15.116C121.746 15.284 121.606 15.492 121.502 15.74C121.406 15.988 121.358 16.272 121.358 16.592V20H120.086V13.532H121.094L121.262 14.684H121.31C121.446 14.452 121.61 14.24 121.802 14.048C121.994 13.856 122.214 13.704 122.462 13.592C122.71 13.472 122.982 13.412 123.278 13.412ZM124.2 13.532H125.568L126.912 17.204C126.984 17.388 127.048 17.568 127.104 17.744C127.16 17.92 127.208 18.096 127.248 18.272C127.296 18.44 127.332 18.608 127.355 18.776H127.404C127.444 18.568 127.508 18.324 127.596 18.044C127.684 17.756 127.776 17.472 127.872 17.192L129.144 13.532H130.512L127.74 20.876C127.588 21.292 127.4 21.648 127.176 21.944C126.952 22.248 126.684 22.48 126.372 22.64C126.068 22.8 125.708 22.88 125.292 22.88C125.092 22.88 124.92 22.868 124.776 22.844C124.632 22.828 124.508 22.808 124.404 22.784V21.776C124.492 21.792 124.596 21.808 124.716 21.824C124.844 21.84 124.976 21.848 125.112 21.848C125.36 21.848 125.572 21.8 125.748 21.704C125.932 21.608 126.084 21.472 126.204 21.296C126.332 21.12 126.44 20.92 126.528 20.696L126.792 20L124.2 13.532Z" fill="white"/>
</g>
<defs>
<filter id="filter0_b_5_212" x="-7" y="-2" width="361" height="58" filterUnits="userSpaceOnUse" color-interpolation-filters="sRGB">
<feFlood flood-opacity="0" result="BackgroundImageFix"/>
<feGaussianBlur in="BackgroundImage" stdDeviation="3.5"/>
<feComposite in2="SourceAlpha" operator="in" result="effect1_backgroundBlur_5_212"/>
<feBlend mode="normal" in="SourceGraphic" in2="effect1_backgroundBlur_5_212" result="shape"/>
</filter>
<linearGradient id="paint0_linear_5_212" x1="-149.825" y1="15.4322" x2="-144.539" y2="73.2201" gradientUnits="userSpaceOnUse">
<stop stop-color="#FFACC6"/>
<stop offset="1" stop-color="#B6E0F5"/>
</linearGradient>
</defs>
</svg>
