<svg width="276" height="49" viewBox="0 0 276 49" fill="none" xmlns="http://www.w3.org/2000/svg">
<g filter="url(#filter0_dd_5_268)">
<g clip-path="url(#clip0_5_268)">
<rect x="4" y="3" width="268" height="40" rx="20" fill="white"/>
<path d="M4 23C4 11.9543 12.9543 3 24 3H94V43H24C12.9543 43 4 34.0457 4 23Z" fill="white"/>
<path d="M45.164 28V19.432H46.244V27.04H49.988V28H45.164ZM56.905 24.772C56.905 25.308 56.833 25.784 56.689 26.2C56.553 26.608 56.353 26.956 56.089 27.244C55.833 27.532 55.517 27.752 55.141 27.904C54.773 28.048 54.361 28.12 53.905 28.12C53.481 28.12 53.089 28.048 52.729 27.904C52.369 27.752 52.057 27.532 51.793 27.244C51.529 26.956 51.321 26.608 51.169 26.2C51.025 25.784 50.953 25.308 50.953 24.772C50.953 24.06 51.073 23.46 51.313 22.972C51.553 22.476 51.897 22.1 52.345 21.844C52.793 21.58 53.325 21.448 53.941 21.448C54.525 21.448 55.037 21.58 55.477 21.844C55.925 22.1 56.273 22.476 56.521 22.972C56.777 23.46 56.905 24.06 56.905 24.772ZM52.045 24.772C52.045 25.276 52.109 25.716 52.237 26.092C52.373 26.46 52.581 26.744 52.861 26.944C53.141 27.144 53.497 27.244 53.929 27.244C54.361 27.244 54.717 27.144 54.997 26.944C55.277 26.744 55.481 26.46 55.609 26.092C55.745 25.716 55.813 25.276 55.813 24.772C55.813 24.26 55.745 23.824 55.609 23.464C55.473 23.104 55.265 22.828 54.985 22.636C54.713 22.436 54.357 22.336 53.917 22.336C53.261 22.336 52.785 22.552 52.489 22.984C52.193 23.416 52.045 24.012 52.045 24.772ZM62.4962 24.364C62.4482 24.196 62.4002 24.032 62.3522 23.872C62.3042 23.704 62.2602 23.548 62.2202 23.404C62.1882 23.252 62.1562 23.112 62.1242 22.984C62.0922 22.856 62.0682 22.748 62.0522 22.66H62.0042C61.9882 22.748 61.9642 22.856 61.9322 22.984C61.9082 23.112 61.8762 23.252 61.8362 23.404C61.8042 23.556 61.7642 23.716 61.7162 23.884C61.6762 24.044 61.6282 24.208 61.5722 24.376L60.4202 27.988H59.2202L57.4562 21.556H58.5482L59.4362 24.988C59.5002 25.22 59.5602 25.456 59.6162 25.696C59.6722 25.928 59.7202 26.152 59.7602 26.368C59.8082 26.576 59.8402 26.756 59.8562 26.908H59.9042C59.9282 26.812 59.9562 26.692 59.9882 26.548C60.0202 26.404 60.0522 26.252 60.0842 26.092C60.1242 25.932 60.1642 25.772 60.2042 25.612C60.2522 25.452 60.2962 25.308 60.3362 25.18L61.4762 21.556H62.6282L63.7322 25.18C63.7882 25.364 63.8442 25.56 63.9002 25.768C63.9642 25.976 64.0202 26.18 64.0682 26.38C64.1162 26.572 64.1482 26.744 64.1642 26.896H64.2122C64.2282 26.76 64.2562 26.592 64.2962 26.392C64.3442 26.184 64.3962 25.96 64.4522 25.72C64.5162 25.472 64.5802 25.228 64.6442 24.988L65.5442 21.556H66.6242L64.8362 27.988H63.6002L62.4962 24.364Z" fill="#ACACAC"/>
<path d="M35.7167 22L37.2334 15L31 23.9353L35.2833 24L33.7666 31L40 22.0647L35.7167 22Z" fill="#ACACAC"/>
<rect x="95" y="3" width="86" height="40" fill="white"/>
<g filter="url(#filter1_dd_5_268)">
<rect x="96" y="4" width="84" height="38" rx="19" fill="#D1EFEF"/>
</g>
<path d="M128.717 22L130.233 15L124 23.9353L128.283 24L126.767 31L133 22.0647L128.717 22Z" fill="#1AB0B0"/>
<path d="M117.717 22L119.233 15L113 23.9353L117.283 24L115.767 31L122 22.0647L117.717 22Z" fill="#1AB0B0"/>
<path d="M141.8 28L139.448 20.98H139.4C139.408 21.14 139.42 21.368 139.436 21.664C139.452 21.952 139.464 22.268 139.472 22.612C139.488 22.948 139.496 23.264 139.496 23.56V28H138.116V19.432H140.252L142.508 26.164H142.556L144.908 19.432H147.044V28H145.58V23.488C145.58 23.216 145.584 22.92 145.592 22.6C145.608 22.272 145.62 21.964 145.628 21.676C145.644 21.38 145.656 21.152 145.664 20.992H145.616L143.168 28H141.8ZM151.733 21.376C152.317 21.376 152.817 21.496 153.233 21.736C153.657 21.968 153.985 22.304 154.217 22.744C154.449 23.176 154.565 23.704 154.565 24.328V25.096H150.269C150.285 25.688 150.449 26.148 150.761 26.476C151.073 26.796 151.505 26.956 152.057 26.956C152.481 26.956 152.857 26.916 153.185 26.836C153.521 26.748 153.865 26.624 154.217 26.464V27.676C153.897 27.828 153.565 27.94 153.221 28.012C152.877 28.084 152.465 28.12 151.985 28.12C151.353 28.12 150.789 28 150.293 27.76C149.805 27.512 149.421 27.14 149.141 26.644C148.869 26.148 148.733 25.532 148.733 24.796C148.733 24.052 148.857 23.428 149.105 22.924C149.361 22.412 149.713 22.028 150.161 21.772C150.609 21.508 151.133 21.376 151.733 21.376ZM151.733 22.492C151.333 22.492 151.005 22.624 150.749 22.888C150.501 23.144 150.353 23.528 150.305 24.04H153.101C153.101 23.736 153.049 23.468 152.945 23.236C152.849 23.004 152.701 22.824 152.501 22.696C152.301 22.56 152.045 22.492 151.733 22.492ZM158.237 28.12C157.485 28.12 156.873 27.84 156.401 27.28C155.937 26.712 155.705 25.872 155.705 24.76C155.705 23.648 155.941 22.808 156.413 22.24C156.885 21.664 157.505 21.376 158.273 21.376C158.593 21.376 158.873 21.42 159.113 21.508C159.361 21.588 159.573 21.7 159.749 21.844C159.925 21.988 160.073 22.148 160.193 22.324H160.265C160.241 22.212 160.217 22.04 160.193 21.808C160.169 21.576 160.157 21.36 160.157 21.16V18.88H161.669V28H160.493L160.217 27.148H160.157C160.037 27.324 159.889 27.488 159.713 27.64C159.537 27.784 159.329 27.9 159.089 27.988C158.849 28.076 158.565 28.12 158.237 28.12ZM158.693 26.896C159.253 26.896 159.649 26.736 159.881 26.416C160.113 26.096 160.229 25.612 160.229 24.964V24.772C160.229 24.068 160.117 23.532 159.893 23.164C159.677 22.796 159.269 22.612 158.669 22.612C158.213 22.612 157.861 22.804 157.613 23.188C157.365 23.564 157.241 24.096 157.241 24.784C157.241 25.472 157.365 25.996 157.613 26.356C157.861 26.716 158.221 26.896 158.693 26.896Z" fill="#1AB0B0"/>
<path d="M182 3H252C263.046 3 272 11.9543 272 23C272 34.0457 263.046 43 252 43H182V3Z" fill="white"/>
<path d="M222.717 22L224.233 15L218 23.9353L222.283 24L220.767 31L227 22.0647L222.717 22Z" fill="#ACACAC"/>
<path d="M211.717 22L213.233 15L207 23.9353L211.283 24L209.767 31L216 22.0647L211.717 22Z" fill="#ACACAC"/>
<path d="M200.717 22L202.233 15L196 23.9353L200.283 24L198.767 31L205 22.0647L200.717 22Z" fill="#ACACAC"/>
<path d="M238.716 28H237.636V24.004H233.244V28H232.164V19.432H233.244V23.056H237.636V19.432H238.716V28ZM241.971 21.568V28H240.915V21.568H241.971ZM241.455 19.156C241.615 19.156 241.755 19.212 241.875 19.324C242.003 19.428 242.067 19.596 242.067 19.828C242.067 20.052 242.003 20.22 241.875 20.332C241.755 20.444 241.615 20.5 241.455 20.5C241.279 20.5 241.131 20.444 241.011 20.332C240.891 20.22 240.831 20.052 240.831 19.828C240.831 19.596 240.891 19.428 241.011 19.324C241.131 19.212 241.279 19.156 241.455 19.156ZM246.288 21.448C246.712 21.448 247.092 21.528 247.428 21.688C247.772 21.848 248.064 22.092 248.304 22.42H248.364L248.508 21.568H249.348V28.108C249.348 28.716 249.244 29.224 249.036 29.632C248.828 30.048 248.512 30.36 248.088 30.568C247.664 30.776 247.124 30.88 246.468 30.88C246.004 30.88 245.576 30.844 245.184 30.772C244.8 30.708 244.456 30.608 244.152 30.472V29.5C244.36 29.604 244.588 29.692 244.836 29.764C245.084 29.844 245.352 29.904 245.64 29.944C245.928 29.984 246.224 30.004 246.528 30.004C247.08 30.004 247.512 29.84 247.824 29.512C248.144 29.192 248.304 28.752 248.304 28.192V27.94C248.304 27.844 248.308 27.708 248.316 27.532C248.324 27.348 248.332 27.22 248.34 27.148H248.292C248.068 27.476 247.788 27.72 247.452 27.88C247.124 28.04 246.74 28.12 246.3 28.12C245.468 28.12 244.816 27.828 244.344 27.244C243.88 26.66 243.648 25.844 243.648 24.796C243.648 24.108 243.752 23.516 243.96 23.02C244.176 22.516 244.48 22.128 244.872 21.856C245.264 21.584 245.736 21.448 246.288 21.448ZM246.432 22.336C246.072 22.336 245.764 22.432 245.508 22.624C245.26 22.816 245.068 23.096 244.932 23.464C244.804 23.832 244.74 24.28 244.74 24.808C244.74 25.6 244.884 26.208 245.172 26.632C245.468 27.048 245.896 27.256 246.456 27.256C246.784 27.256 247.064 27.216 247.296 27.136C247.528 27.048 247.72 26.916 247.872 26.74C248.024 26.556 248.136 26.324 248.208 26.044C248.28 25.764 248.316 25.432 248.316 25.048V24.796C248.316 24.212 248.248 23.74 248.112 23.38C247.984 23.02 247.78 22.756 247.5 22.588C247.22 22.42 246.864 22.336 246.432 22.336ZM252.447 21.556C252.447 21.708 252.439 21.864 252.423 22.024C252.415 22.184 252.403 22.328 252.387 22.456H252.459C252.595 22.232 252.767 22.048 252.975 21.904C253.183 21.76 253.415 21.652 253.671 21.58C253.927 21.5 254.191 21.46 254.463 21.46C254.983 21.46 255.415 21.544 255.759 21.712C256.111 21.872 256.375 22.124 256.551 22.468C256.727 22.812 256.815 23.26 256.815 23.812V28H255.771V23.884C255.771 23.364 255.655 22.976 255.423 22.72C255.191 22.464 254.827 22.336 254.331 22.336C253.851 22.336 253.475 22.428 253.203 22.612C252.931 22.788 252.735 23.052 252.615 23.404C252.503 23.748 252.447 24.172 252.447 24.676V28H251.391V18.88H252.447V21.556Z" fill="#ACACAC"/>
</g>
</g>
<defs>
<filter id="filter0_dd_5_268" x="0" y="0" width="276" height="49" filterUnits="userSpaceOnUse" color-interpolation-filters="sRGB">
<feFlood flood-opacity="0" result="BackgroundImageFix"/>
<feColorMatrix in="SourceAlpha" type="matrix" values="0 0 0 0 0 0 0 0 0 0 0 0 0 0 0 0 0 0 127 0" result="hardAlpha"/>
<feOffset dy="2"/>
<feGaussianBlur stdDeviation="2"/>
<feColorMatrix type="matrix" values="0 0 0 0 0 0 0 0 0 0 0 0 0 0 0 0 0 0 0.04 0"/>
<feBlend mode="normal" in2="BackgroundImageFix" result="effect1_dropShadow_5_268"/>
<feColorMatrix in="SourceAlpha" type="matrix" values="0 0 0 0 0 0 0 0 0 0 0 0 0 0 0 0 0 0 127 0" result="hardAlpha"/>
<feOffset dy="1"/>
<feGaussianBlur stdDeviation="2"/>
<feColorMatrix type="matrix" values="0 0 0 0 0 0 0 0 0 0 0 0 0 0 0 0 0 0 0.04 0"/>
<feBlend mode="normal" in2="effect1_dropShadow_5_268" result="effect2_dropShadow_5_268"/>
<feBlend mode="normal" in="SourceGraphic" in2="effect2_dropShadow_5_268" result="shape"/>
</filter>
<filter id="filter1_dd_5_268" x="88" y="-2" width="100" height="54" filterUnits="userSpaceOnUse" color-interpolation-filters="sRGB">
<feFlood flood-opacity="0" result="BackgroundImageFix"/>
<feColorMatrix in="SourceAlpha" type="matrix" values="0 0 0 0 0 0 0 0 0 0 0 0 0 0 0 0 0 0 127 0" result="hardAlpha"/>
<feOffset dy="4"/>
<feGaussianBlur stdDeviation="2"/>
<feColorMatrix type="matrix" values="0 0 0 0 0.101961 0 0 0 0 0.690196 0 0 0 0 0.690196 0 0 0 0.08 0"/>
<feBlend mode="normal" in2="BackgroundImageFix" result="effect1_dropShadow_5_268"/>
<feColorMatrix in="SourceAlpha" type="matrix" values="0 0 0 0 0 0 0 0 0 0 0 0 0 0 0 0 0 0 127 0" result="hardAlpha"/>
<feOffset dy="2"/>
<feGaussianBlur stdDeviation="4"/>
<feColorMatrix type="matrix" values="0 0 0 0 0.101961 0 0 0 0 0.690196 0 0 0 0 0.690196 0 0 0 0.08 0"/>
<feBlend mode="normal" in2="effect1_dropShadow_5_268" result="effect2_dropShadow_5_268"/>
<feBlend mode="normal" in="SourceGraphic" in2="effect2_dropShadow_5_268" result="shape"/>
</filter>
<clipPath id="clip0_5_268">
<rect x="4" y="3" width="268" height="40" rx="20" fill="white"/>
</clipPath>
</defs>
</svg>
