<svg width="1873" height="413" viewBox="0 0 1873 413" fill="none" xmlns="http://www.w3.org/2000/svg">
<path opacity="0.3" fill-rule="evenodd" clip-rule="evenodd" d="M120 0L180 58C240 115 360 231 480 223C600 216 720 87 840 43C960 0 1080 43 1200 58C1320 72 1440 58 1500 51L1560 43V389H1500C1440 389 1320 389 1200 389C1080 389 960 389 840 389C720 389 600 389 480 389C360 389 240 389 180 389H120V0Z" fill="#00866A"/>
<path opacity="0.3" fill-rule="evenodd" clip-rule="evenodd" d="M108 24L181.542 82C255.083 139 402.167 255 549.25 247C696.333 240 843.417 111 990.5 67C1137.58 24 1284.67 67 1431.75 82C1578.83 96 1725.92 82 1799.46 75L1873 67V413H1799.46C1725.92 413 1578.83 413 1431.75 413C1284.67 413 1137.58 413 990.5 413C843.417 413 696.333 413 549.25 413C402.167 413 255.083 413 181.542 413H108V24Z" fill="#00866A"/>
<path opacity="0.3" fill-rule="evenodd" clip-rule="evenodd" d="M0 0L67.2917 58C134.583 115 269.167 231 403.75 223C538.333 216 672.917 87 807.5 43C942.083 0 1076.67 43 1211.25 58C1345.83 72 1480.42 58 1547.71 51L1615 43V389H1547.71C1480.42 389 1345.83 389 1211.25 389C1076.67 389 942.083 389 807.5 389C672.917 389 538.333 389 403.75 389C269.167 389 134.583 389 67.2917 389H0V0Z" fill="#00866A"/>
</svg>
