<svg width="94" height="36" viewBox="0 0 94 36" fill="none" xmlns="http://www.w3.org/2000/svg">
<path d="M19.3085 19.112C19.3085 21.2 19.1525 23.06 18.8405 24.692C18.5285 26.324 18.0245 27.716 17.3285 28.868C16.6565 29.996 15.7685 30.86 14.6645 31.46C13.5845 32.06 12.2765 32.36 10.7405 32.36C8.82047 32.36 7.22447 31.832 5.95247 30.776C4.70447 29.72 3.76847 28.208 3.14447 26.24C2.54447 24.248 2.24447 21.872 2.24447 19.112C2.24447 16.328 2.52047 13.952 3.07247 11.984C3.64847 10.016 4.56047 8.516 5.80847 7.484C7.05647 6.428 8.70047 5.9 10.7405 5.9C12.6605 5.9 14.2565 6.428 15.5285 7.484C16.8005 8.516 17.7485 10.016 18.3725 11.984C18.9965 13.952 19.3085 16.328 19.3085 19.112ZM5.41247 19.112C5.41247 21.464 5.58047 23.42 5.91647 24.98C6.27647 26.54 6.84047 27.716 7.60847 28.508C8.40047 29.276 9.44447 29.66 10.7405 29.66C12.0365 29.66 13.0685 29.276 13.8365 28.508C14.6285 27.74 15.2045 26.576 15.5645 25.016C15.9245 23.432 16.1045 21.464 16.1045 19.112C16.1045 16.76 15.9245 14.816 15.5645 13.28C15.2045 11.72 14.6285 10.556 13.8365 9.788C13.0685 8.996 12.0365 8.6 10.7405 8.6C9.44447 8.6 8.40047 8.996 7.60847 9.788C6.84047 10.556 6.27647 11.72 5.91647 13.28C5.58047 14.816 5.41247 16.76 5.41247 19.112ZM33.862 32H30.766V14.036C30.766 13.34 30.766 12.752 30.766 12.272C30.79 11.792 30.814 11.348 30.838 10.94C30.862 10.508 30.886 10.064 30.91 9.608C30.526 9.992 30.178 10.316 29.866 10.58C29.554 10.844 29.158 11.18 28.678 11.588L25.942 13.82L24.286 11.696L31.234 6.296H33.862V32ZM44.2756 30.056C44.2756 29.168 44.4916 28.544 44.9236 28.184C45.3556 27.824 45.8716 27.644 46.4716 27.644C47.0956 27.644 47.6236 27.824 48.0556 28.184C48.5116 28.544 48.7396 29.168 48.7396 30.056C48.7396 30.92 48.5116 31.544 48.0556 31.928C47.6236 32.312 47.0956 32.504 46.4716 32.504C45.8716 32.504 45.3556 32.312 44.9236 31.928C44.4916 31.544 44.2756 30.92 44.2756 30.056ZM44.2756 14.648C44.2756 13.736 44.4916 13.1 44.9236 12.74C45.3556 12.38 45.8716 12.2 46.4716 12.2C47.0956 12.2 47.6236 12.38 48.0556 12.74C48.5116 13.1 48.7396 13.736 48.7396 14.648C48.7396 15.512 48.5116 16.136 48.0556 16.52C47.6236 16.904 47.0956 17.096 46.4716 17.096C45.8716 17.096 45.3556 16.904 44.9236 16.52C44.4916 16.136 44.2756 15.512 44.2756 14.648ZM64.0964 32H61.0004V14.036C61.0004 13.34 61.0004 12.752 61.0004 12.272C61.0244 11.792 61.0484 11.348 61.0724 10.94C61.0964 10.508 61.1204 10.064 61.1444 9.608C60.7604 9.992 60.4124 10.316 60.1004 10.58C59.7884 10.844 59.3924 11.18 58.9124 11.588L56.1764 13.82L54.5204 11.696L61.4684 6.296H64.0964V32ZM73.898 21.02C73.898 19.532 73.994 18.068 74.186 16.628C74.402 15.188 74.762 13.832 75.266 12.56C75.77 11.264 76.466 10.124 77.354 9.14C78.242 8.132 79.358 7.352 80.702 6.8C82.07 6.224 83.726 5.936 85.67 5.936C86.174 5.936 86.726 5.96 87.326 6.008C87.95 6.056 88.454 6.14 88.838 6.26V8.96C88.406 8.816 87.914 8.708 87.362 8.636C86.834 8.564 86.294 8.528 85.742 8.528C84.086 8.528 82.706 8.804 81.602 9.356C80.498 9.908 79.622 10.664 78.974 11.624C78.35 12.584 77.894 13.688 77.606 14.936C77.318 16.184 77.138 17.516 77.066 18.932H77.282C77.642 18.356 78.098 17.84 78.65 17.384C79.202 16.928 79.862 16.568 80.63 16.304C81.422 16.04 82.334 15.908 83.366 15.908C84.854 15.908 86.15 16.22 87.254 16.844C88.382 17.444 89.258 18.332 89.882 19.508C90.506 20.66 90.818 22.064 90.818 23.72C90.818 25.496 90.482 27.032 89.81 28.328C89.138 29.624 88.19 30.62 86.966 31.316C85.766 32.012 84.326 32.36 82.646 32.36C81.422 32.36 80.282 32.132 79.226 31.676C78.17 31.22 77.234 30.524 76.418 29.588C75.626 28.652 75.002 27.476 74.546 26.06C74.114 24.62 73.898 22.94 73.898 21.02ZM82.61 29.696C84.122 29.696 85.346 29.216 86.282 28.256C87.218 27.272 87.686 25.76 87.686 23.72C87.686 22.088 87.266 20.792 86.426 19.832C85.61 18.872 84.374 18.392 82.718 18.392C81.59 18.392 80.606 18.632 79.766 19.112C78.926 19.568 78.266 20.156 77.786 20.876C77.33 21.596 77.102 22.34 77.102 23.108C77.102 23.9 77.21 24.68 77.426 25.448C77.666 26.216 78.014 26.924 78.47 27.572C78.95 28.22 79.526 28.736 80.198 29.12C80.894 29.504 81.698 29.696 82.61 29.696Z" fill="#282828"/>
</svg>
